<?xml version="1.0" encoding="utf-8"?>
<!-- Generator: Adobe Illustrator 18.1.0, SVG Export Plug-In . SVG Version: 6.00 Build 0)  -->
<svg version="1.1" id="Calque_1" xmlns="http://www.w3.org/2000/svg" xmlns:xlink="http://www.w3.org/1999/xlink" x="0px" y="0px"
	 viewBox="0 0 13.1 10.3" enable-background="new 0 0 13.1 10.3" xml:space="preserve">
<path d="M12.7,0.2c-0.5,0.3-1.1,0.5-1.7,0.6C10.5,0.3,9.8,0,9,0C7.6,0,6.4,1.2,6.4,2.6c0,0.2,0,0.4,0.1,0.6C4.2,3.1,2.2,2,0.9,0.5
	C0.7,0.9,0.5,1.3,0.5,1.8c0,0.9,0.5,1.7,1.2,2.2c-0.4,0-0.9-0.1-1.2-0.3v0c0,1.3,0.9,2.3,2.1,2.5C2.4,6.2,2.2,6.3,2,6.3
	c-0.2,0-0.3,0-0.5,0C1.8,7.3,2.8,8,4,8C3,8.7,1.9,9.1,0.6,9.1c-0.2,0-0.4,0-0.6,0c1.2,0.7,2.6,1.2,4.1,1.2c4.9,0,7.6-3.9,7.6-7.4
	l0-0.3c0.5-0.4,1-0.8,1.3-1.3c-0.5,0.2-1,0.3-1.5,0.4C12.1,1.3,12.5,0.8,12.7,0.2z"/>
</svg>
