<?xml version="1.0" encoding="utf-8"?>
<!-- Generator: Adobe Illustrator 18.1.0, SVG Export Plug-In . SVG Version: 6.00 Build 0)  -->
<svg version="1.1" id="Calque_1" xmlns="http://www.w3.org/2000/svg" xmlns:xlink="http://www.w3.org/1999/xlink" x="0px" y="0px"
	 viewBox="0 0 37 29.6" enable-background="new 0 0 37 29.6" xml:space="preserve">
<path fill="none" stroke="#FFFFFF" stroke-linecap="round" d="M0.5,6.7V2.8c0-1.3,1-2.3,2.3-2.3h3.9"/>
<path fill="none" stroke="#FFFFFF" stroke-linecap="round" d="M6.7,29.1H2.8c-1.3,0-2.3-1-2.3-2.3v-3.9"/>
<path fill="none" stroke="#FFFFFF" stroke-linecap="round" d="M36.5,22.9v3.9c0,1.3-1,2.3-2.3,2.3h-3.9"/>
<path fill="none" stroke="#FFFFFF" stroke-linecap="round" d="M30.3,0.5h3.9c1.3,0,2.3,1,2.3,2.3v3.9"/>
<path fill="#FFFFFF" d="M26.5,23.9c0-6.1,0-12.2,0-18.2c0.9,0,1.7,0,2.6,0c0,0.2,0,0.3,0,0.4c0,5.8,0,11.6,0,17.3c0,0.4-0.1,0.5-0.4,0.5
	C28,23.9,27.3,23.9,26.5,23.9z"/>
<path fill="#FFFFFF" d="M7.6,5.7c0,6.1,0,12.1,0,18.2c-0.7,0-1.3,0-2,0c0-6.1,0-12.1,0-18.2C6.3,5.7,6.9,5.7,7.6,5.7z"/>
<path fill="#FFFFFF" d="M11.2,23.9c-0.6,0-1.2,0-1.8,0c-0.1,0-0.1-0.1-0.2-0.2c0-0.1,0-0.2,0-0.3c0-5.8,0-11.5,0-17.3
	c0-0.1,0-0.3,0-0.5c0.7,0,1.4,0,2,0C11.2,11.7,11.2,17.8,11.2,23.9z"/>
<path fill="#FFFFFF" d="M12.6,5.7c0.7,0,1.3,0,2,0c0,6.1,0,12.1,0,18.2c-0.7,0-1.3,0-2,0C12.6,17.8,12.6,11.8,12.6,5.7z"/>
<path fill="#FFFFFF" d="M16.7,23.9C16.6,23.9,16.6,23.9,16.7,23.9c-1,0.2-1,0.2-1-0.9c0-5.6,0-11.2,0-16.7c0-0.2,0-0.3,0-0.5c0.4,0,0.7,0,1,0
	C16.7,11.7,16.7,17.8,16.7,23.9z"/>
<path fill="#FFFFFF" d="M18.2,5.7c0.4,0,0.7,0,1,0c0,6.1,0,12.1,0,18.2c-0.3,0-0.6,0-0.9,0c-0.1,0-0.1-0.1-0.2-0.2c0-0.1,0-0.2,0-0.3
	c0-5.8,0-11.6,0-17.3C18.2,6,18.2,5.9,18.2,5.7z"/>
<path fill="#FFFFFF" d="M30.4,5.7c0.3,0,0.6,0,1,0c0,6.1,0,12.1,0,18.2c-0.3,0-0.6,0-1,0C30.4,17.8,30.4,11.8,30.4,5.7z"/>
<rect x="5.6" y="5.7" fill="#FFFFFF" width="2" height="18.2"/>
<rect x="9.2" y="5.7" fill="#FFFFFF" width="2" height="18.2"/>
<rect x="12.6" y="5.7" fill="#FFFFFF" width="2" height="18.2"/>
<rect x="21.9" y="5.7" fill="#FFFFFF" width="2.8" height="18.2"/>
<rect x="26.5" y="5.7" fill="#FFFFFF" width="2.6" height="18.2"/>
<rect x="15.7" y="5.7" fill="#FFFFFF" width="1" height="18.2"/>
<rect x="18.2" y="5.7" fill="#FFFFFF" width="1" height="18.2"/>
<rect x="30.4" y="5.7" fill="#FFFFFF" width="1" height="18.2"/>
</svg>
