<?xml version="1.0" encoding="utf-8"?>
<!-- Generator: Adobe Illustrator 18.1.0, SVG Export Plug-In . SVG Version: 6.00 Build 0)  -->
<svg version="1.1" id="Calque_1" xmlns="http://www.w3.org/2000/svg" xmlns:xlink="http://www.w3.org/1999/xlink" x="0px" y="0px"
	 viewBox="0 0 39.2 34" enable-background="new 0 0 39.2 34" xml:space="preserve">
<g>
	<line fill="none" stroke="#FFFFFF" stroke-linecap="round" x1="0.5" y1="33.5" x2="38.7" y2="33.5"/>
	<path fill="none" stroke="#FFFFFF" stroke-linecap="round" d="M9.4,23.3H8c-1.1,0-1.9,0.9-1.9,1.9v8.3"/>
	<path fill="none" stroke="#FFFFFF" stroke-linecap="round" d="M26.3,33.5v-8.3c0-1.1-0.9-1.9-1.9-1.9h-1.2"/>
	<path fill="none" stroke="#FFFFFF" stroke-linecap="round" d="M21.3,15.5h-9.9c-1.1,0-1.9,0.9-1.9,1.9v9.9c0,1.1,0.9,1.9,1.9,1.9
		h9.9c1.1,0,1.9-0.9,1.9-1.9v-9.9C23.2,16.4,22.3,15.5,21.3,15.5z"/>
	<path fill="none" stroke="#FFFFFF" stroke-linecap="round" d="M35,33.5V9.7V6.5V1.1c0-0.4-0.3-0.6-0.6-0.6h-1.9
		c-0.4,0-0.6,0.3-0.6,0.6v4.7c0,0.4-0.3,0.6-0.6,0.6H10c-0.4,0-0.6,0.3-0.6,0.6v1.9c0,0.4,0.3,0.6,0.6,0.6h21.2
		c0.4,0,0.6,0.3,0.6,0.6v23.2"/>
	<line fill="none" stroke="#FFFFFF" x1="10" y1="16.1" x2="22.7" y2="28.8"/>
	<line fill="none" stroke="#FFFFFF" x1="22.7" y1="16.1" x2="10" y2="28.8"/>
</g>
</svg>
