<?xml version="1.0" encoding="utf-8"?>
<!-- Generator: Adobe Illustrator 18.1.0, SVG Export Plug-In . SVG Version: 6.00 Build 0)  -->
<svg version="1.1" id="Calque_1" xmlns="http://www.w3.org/2000/svg" xmlns:xlink="http://www.w3.org/1999/xlink" x="0px" y="0px"
	 viewBox="0 0 14 18" enable-background="new 0 0 14 18" xml:space="preserve">
<path d="M11.8,13.2h-0.9l0-0.6c0-0.3,0.2-0.5,0.4-0.5h0.1c0.2,0,0.4,0.2,0.4,0.5L11.8,13.2z M8.4,11.9c-0.2,0-0.4,0.2-0.4,0.4v2.8
	c0,0.2,0.2,0.4,0.4,0.4c0.2,0,0.4-0.2,0.4-0.4v-2.8C8.8,12.1,8.6,11.9,8.4,11.9z M14,10.4v5.3c0,1.3-1,2.3-2.3,2.3H2.3
	C1,18,0,17,0,15.7v-5.3c0-1.3,1-2.3,2.3-2.3h9.4C13,8.1,14,9.1,14,10.4z M2.9,16.3l0-5.6l1.2,0V9.8L1,9.8v0.8l1,0v5.6H2.9z
	 M6.4,11.5h-1v3c0,0.4,0,0.6,0,0.7c-0.1,0.2-0.4,0.5-0.6,0c0-0.1,0-0.3,0-0.7l0-3h-1l0,3c0,0.5,0,0.8,0,0.9c0,0.3,0,0.6,0.3,0.8
	c0.4,0.3,1.3-0.1,1.5-0.5l0,0.6l0.8,0L6.4,11.5L6.4,11.5z M9.5,14.9l0-2.5c0-0.9-0.7-1.5-1.6-0.7l0-1.8l-1,0l0,6.4l0.8,0l0.1-0.4
	C8.9,16.8,9.5,16.1,9.5,14.9z M12.6,14.6l-0.7,0c0,0,0,0.1,0,0.1v0.4c0,0.2-0.2,0.4-0.4,0.4h-0.1c-0.2,0-0.4-0.2-0.4-0.4v0v-0.5V14
	h1.7v-0.7c0-0.5,0-1,0-1.3c-0.1-0.9-1.3-1-1.9-0.6c-0.2,0.1-0.3,0.3-0.4,0.6c-0.1,0.3-0.1,0.6-0.1,1.1v1.5
	C10.1,17.1,12.9,16.7,12.6,14.6z M8.8,6.5C8.9,6.7,9,6.8,9.1,6.9C9.2,6.9,9.3,7,9.5,7c0.1,0,0.3,0,0.4-0.1c0.1-0.1,0.2-0.2,0.3-0.4
	l0,0.4h1.1V1.9h-0.9v3.8c0,0.2-0.2,0.4-0.4,0.4C9.8,6.2,9.6,6,9.6,5.8V1.9H8.7v3.3c0,0.4,0,0.7,0,0.9C8.8,6.3,8.8,6.4,8.8,6.5z
	 M5.5,3.8c0-0.5,0-0.8,0.1-1.1C5.7,2.4,5.9,2.2,6.1,2c0.2-0.2,0.4-0.2,0.7-0.2c0.3,0,0.5,0.1,0.6,0.2C7.6,2,7.8,2.2,7.9,2.3
	C8,2.5,8,2.7,8.1,2.8c0,0.2,0.1,0.4,0.1,0.8v1.3c0,0.5,0,0.8-0.1,1C8,6.1,8,6.3,7.8,6.5C7.7,6.7,7.6,6.8,7.4,6.9C7.3,7,7.1,7,6.8,7
	C6.6,7,6.4,7,6.2,6.9C6,6.9,5.9,6.7,5.8,6.6C5.7,6.4,5.6,6.3,5.6,6c0-0.2-0.1-0.5-0.1-1L5.5,3.8L5.5,3.8z M6.4,5.7
	c0,0.3,0.2,0.5,0.4,0.5c0.2,0,0.4-0.2,0.4-0.5V3.1c0-0.3-0.2-0.5-0.4-0.5c-0.2,0-0.4,0.2-0.4,0.5V5.7z M3.4,7h1l0-3.8L5.6,0H4.5
	L3.9,2.4L3.2,0H2.1l1.3,3.3L3.4,7z"/>
</svg>
