<?xml version="1.0" encoding="utf-8"?>
<!-- Generator: Adobe Illustrator 18.0.0, SVG Export Plug-In . SVG Version: 6.00 Build 0)  -->
<!DOCTYPE svg PUBLIC "-//W3C//DTD SVG 1.1//EN" "http://www.w3.org/Graphics/SVG/1.1/DTD/svg11.dtd">
<svg version="1.1" id="Calque_1" xmlns="http://www.w3.org/2000/svg" xmlns:xlink="http://www.w3.org/1999/xlink" x="0px" y="0px"
	 viewBox="0 0 85.9 79.4" enable-background="new 0 0 85.9 79.4" xml:space="preserve">
<g>
	<path fill="#F1F1F1" d="M31.9,44.8v34.6H0V52.1C0,37.3,1.8,26.6,5.3,20c4.6-8.8,12-15.5,22-20l7.3,11.6
		c-6.1,2.5-10.5,6.3-13.4,11.3c-2.9,5-4.5,12.3-4.8,21.9H31.9z M83.2,44.8v34.6H51.3V52.1c0-14.8,1.8-25.5,5.3-32.1
		c4.6-8.8,12-15.5,22-20l7.3,11.6c-6.1,2.5-10.5,6.3-13.4,11.3c-2.9,5-4.5,12.3-4.8,21.9H83.2z"/>
</g>
</svg>
