<?xml version="1.0" encoding="utf-8"?>
<!-- Generator: Adobe Illustrator 18.1.0, SVG Export Plug-In . SVG Version: 6.00 Build 0)  -->
<svg version="1.1" id="Calque_1" xmlns="http://www.w3.org/2000/svg" xmlns:xlink="http://www.w3.org/1999/xlink" x="0px" y="0px"
	 viewBox="0 0 7.3 12.6" enable-background="new 0 0 7.3 12.6" xml:space="preserve">
<path fill="#fff" d="M7.1,0L5.3,0C3.3,0,2,1.2,2,3.1v1.4H0.3C0.1,4.5,0,4.7,0,4.8v2.1C0,7,0.1,7.1,0.3,7.1H2v5.2c0,0.1,0.1,0.3,0.3,0.3h2.3
	c0.2,0,0.3-0.1,0.3-0.3V7.1H7c0.2,0,0.3-0.1,0.3-0.3l0-2.1c0-0.1,0-0.1-0.1-0.2C7.1,4.6,7.1,4.5,7,4.5H4.9V3.3c0-0.6,0.1-0.9,1-0.9
	l1.2,0c0.2,0,0.3-0.1,0.3-0.3V0.3C7.3,0.1,7.2,0,7.1,0z"/>
</svg>
