<?xml version="1.0" encoding="utf-8"?>
<!-- Generator: Adobe Illustrator 18.1.0, SVG Export Plug-In . SVG Version: 6.00 Build 0)  -->
<svg version="1.1" id="Calque_1" xmlns="http://www.w3.org/2000/svg" xmlns:xlink="http://www.w3.org/1999/xlink" x="0px" y="0px"
	 viewBox="0 0 35.5 26.7" enable-background="new 0 0 35.5 26.7" xml:space="preserve">
<g>
	<line fill="none" stroke="#FFFFFF" stroke-linecap="round" x1="0.5" y1="0.6" x2="0.5" y2="26.1"/>
	<line fill="none" stroke="#FFFFFF" stroke-linecap="round" x1="35" y1="0.6" x2="35" y2="26.1"/>
	<g>
		<path fill="none" stroke="#FFFFFF" d="M5.1,7.4L1.9,4.1c-0.1-0.1-0.1-0.2,0-0.3l3.2-3.2c0.1-0.1,0.2-0.1,0.3,0l3.2,3.2
			c0.1,0.1,0.1,0.2,0,0.3L5.5,7.4C5.4,7.5,5.2,7.5,5.1,7.4z"/>
		<path fill="none" stroke="#FFFFFF" d="M5.1,13.6l-3.2-3.2c-0.1-0.1-0.1-0.2,0-0.3l3.2-3.2c0.1-0.1,0.2-0.1,0.3,0L8.7,10
			c0.1,0.1,0.1,0.2,0,0.3l-3.2,3.2C5.4,13.7,5.2,13.7,5.1,13.6z"/>
		<path fill="none" stroke="#FFFFFF" d="M5.1,19.9l-3.2-3.2c-0.1-0.1-0.1-0.2,0-0.3l3.2-3.2c0.1-0.1,0.2-0.1,0.3,0l3.2,3.2
			c0.1,0.1,0.1,0.2,0,0.3l-3.2,3.2C5.4,20,5.2,20,5.1,19.9z"/>
		<path fill="none" stroke="#FFFFFF" d="M5.1,26.1l-3.2-3.2c-0.1-0.1-0.1-0.2,0-0.3l3.2-3.2c0.1-0.1,0.2-0.1,0.3,0l3.2,3.2
			c0.1,0.1,0.1,0.2,0,0.3l-3.2,3.2C5.4,26.2,5.2,26.2,5.1,26.1z"/>
		<path fill="none" stroke="#FFFFFF" d="M11.3,7.4L8.1,4.1C8,4.1,8,3.9,8.1,3.8l3.2-3.2c0.1-0.1,0.2-0.1,0.3,0l3.2,3.2
			c0.1,0.1,0.1,0.2,0,0.3l-3.2,3.2C11.6,7.5,11.4,7.5,11.3,7.4z"/>
		<path fill="none" stroke="#FFFFFF" d="M11.3,13.6l-3.2-3.2C8,10.3,8,10.1,8.1,10l3.2-3.2c0.1-0.1,0.2-0.1,0.3,0l3.2,3.2
			c0.1,0.1,0.1,0.2,0,0.3l-3.2,3.2C11.6,13.7,11.4,13.7,11.3,13.6z"/>
		<path fill="none" stroke="#FFFFFF" d="M11.3,19.9l-3.2-3.2c-0.1-0.1-0.1-0.2,0-0.3l3.2-3.2c0.1-0.1,0.2-0.1,0.3,0l3.2,3.2
			c0.1,0.1,0.1,0.2,0,0.3l-3.2,3.2C11.6,20,11.4,20,11.3,19.9z"/>
		<path fill="none" stroke="#FFFFFF" d="M11.3,26.1l-3.2-3.2c-0.1-0.1-0.1-0.2,0-0.3l3.2-3.2c0.1-0.1,0.2-0.1,0.3,0l3.2,3.2
			c0.1,0.1,0.1,0.2,0,0.3l-3.2,3.2C11.6,26.2,11.4,26.2,11.3,26.1z"/>
		<path fill="none" stroke="#FFFFFF" d="M17.6,7.4l-3.2-3.2c-0.1-0.1-0.1-0.2,0-0.3l3.2-3.2c0.1-0.1,0.2-0.1,0.3,0l3.2,3.2
			c0.1,0.1,0.1,0.2,0,0.3l-3.2,3.2C17.8,7.5,17.7,7.5,17.6,7.4z"/>
		<path fill="none" stroke="#FFFFFF" d="M17.6,13.6l-3.2-3.2c-0.1-0.1-0.1-0.2,0-0.3l3.2-3.2c0.1-0.1,0.2-0.1,0.3,0l3.2,3.2
			c0.1,0.1,0.1,0.2,0,0.3l-3.2,3.2C17.8,13.7,17.7,13.7,17.6,13.6z"/>
		<path fill="none" stroke="#FFFFFF" d="M17.6,19.9l-3.2-3.2c-0.1-0.1-0.1-0.2,0-0.3l3.2-3.2c0.1-0.1,0.2-0.1,0.3,0l3.2,3.2
			c0.1,0.1,0.1,0.2,0,0.3l-3.2,3.2C17.8,20,17.7,20,17.6,19.9z"/>
		<path fill="none" stroke="#FFFFFF" d="M17.6,26.1l-3.2-3.2c-0.1-0.1-0.1-0.2,0-0.3l3.2-3.2c0.1-0.1,0.2-0.1,0.3,0l3.2,3.2
			c0.1,0.1,0.1,0.2,0,0.3l-3.2,3.2C17.8,26.2,17.7,26.2,17.6,26.1z"/>
		<path fill="none" stroke="#FFFFFF" d="M23.8,7.4l-3.2-3.2c-0.1-0.1-0.1-0.2,0-0.3l3.2-3.2c0.1-0.1,0.2-0.1,0.3,0l3.2,3.2
			c0.1,0.1,0.1,0.2,0,0.3l-3.2,3.2C24.1,7.5,23.9,7.5,23.8,7.4z"/>
		<path fill="none" stroke="#FFFFFF" d="M23.8,13.6l-3.2-3.2c-0.1-0.1-0.1-0.2,0-0.3l3.2-3.2c0.1-0.1,0.2-0.1,0.3,0l3.2,3.2
			c0.1,0.1,0.1,0.2,0,0.3l-3.2,3.2C24.1,13.7,23.9,13.7,23.8,13.6z"/>
		<path fill="none" stroke="#FFFFFF" d="M23.8,19.9l-3.2-3.2c-0.1-0.1-0.1-0.2,0-0.3l3.2-3.2c0.1-0.1,0.2-0.1,0.3,0l3.2,3.2
			c0.1,0.1,0.1,0.2,0,0.3l-3.2,3.2C24.1,20,23.9,20,23.8,19.9z"/>
		<path fill="none" stroke="#FFFFFF" d="M23.8,26.1l-3.2-3.2c-0.1-0.1-0.1-0.2,0-0.3l3.2-3.2c0.1-0.1,0.2-0.1,0.3,0l3.2,3.2
			c0.1,0.1,0.1,0.2,0,0.3l-3.2,3.2C24.1,26.2,23.9,26.2,23.8,26.1z"/>
		<path fill="none" stroke="#FFFFFF" d="M30.1,7.4l-3.2-3.2c-0.1-0.1-0.1-0.2,0-0.3l3.2-3.2c0.1-0.1,0.2-0.1,0.3,0l3.2,3.2
			c0.1,0.1,0.1,0.2,0,0.3l-3.2,3.2C30.3,7.5,30.1,7.5,30.1,7.4z"/>
		<path fill="none" stroke="#FFFFFF" d="M30.1,13.6l-3.2-3.2c-0.1-0.1-0.1-0.2,0-0.3l3.2-3.2c0.1-0.1,0.2-0.1,0.3,0l3.2,3.2
			c0.1,0.1,0.1,0.2,0,0.3l-3.2,3.2C30.3,13.7,30.1,13.7,30.1,13.6z"/>
		<path fill="none" stroke="#FFFFFF" d="M30.1,19.9l-3.2-3.2c-0.1-0.1-0.1-0.2,0-0.3l3.2-3.2c0.1-0.1,0.2-0.1,0.3,0l3.2,3.2
			c0.1,0.1,0.1,0.2,0,0.3l-3.2,3.2C30.3,20,30.1,20,30.1,19.9z"/>
		<path fill="none" stroke="#FFFFFF" d="M30.1,26.1l-3.2-3.2c-0.1-0.1-0.1-0.2,0-0.3l3.2-3.2c0.1-0.1,0.2-0.1,0.3,0l3.2,3.2
			c0.1,0.1,0.1,0.2,0,0.3l-3.2,3.2C30.3,26.2,30.1,26.2,30.1,26.1z"/>
	</g>
</g>
</svg>
