<?xml version="1.0" encoding="utf-8"?>
<!-- Generator: Adobe Illustrator 18.1.0, SVG Export Plug-In . SVG Version: 6.00 Build 0)  -->
<svg version="1.1" id="Calque_1" xmlns="http://www.w3.org/2000/svg" xmlns:xlink="http://www.w3.org/1999/xlink" x="0px" y="0px"
	 viewBox="0 0 45 35" enable-background="new 0 0 45 35" xml:space="preserve">
<line fill="none" stroke="#FFFFFF" stroke-linecap="round" x1="29.6" y1="31.4" x2="15.4" y2="31.4"/>
<line fill="none" stroke="#FFFFFF" stroke-linecap="round" x1="15.4" y1="18.8" x2="29.6" y2="18.8"/>
<line fill="none" stroke="#FFFFFF" stroke-linecap="round" x1="23.8" y1="18.8" x2="23.8" y2="9.4"/>
<line fill="none" stroke="#FFFFFF" stroke-linecap="round" x1="21.1" y1="9.4" x2="21.1" y2="18.8"/>
<path fill="none" stroke="#FFFFFF" stroke-linecap="round" d="M23.8,5.3V1.9c0-0.8-0.6-1.4-1.4-1.4l0,0c-0.8,0-1.4,0.6-1.4,1.4v3.4"
	/>
<line fill="none" stroke="#FFFFFF" stroke-linecap="round" x1="36.5" y1="17.9" x2="44.5" y2="17.9"/>
<line fill="none" stroke="#FFFFFF" stroke-linecap="round" x1="44.5" y1="32.3" x2="36.5" y2="32.3"/>
<line fill="none" stroke="#FFFFFF" stroke-linecap="round" x1="8.4" y1="32.3" x2="0.5" y2="32.3"/>
<line fill="none" stroke="#FFFFFF" stroke-linecap="round" x1="0.5" y1="17.9" x2="8.4" y2="17.9"/>
<rect x="29.6" y="15.7" fill="none" stroke="#FFFFFF" stroke-linecap="round" width="7" height="18.8"/>
<rect x="8.4" y="15.7" fill="none" stroke="#FFFFFF" stroke-linecap="round" width="7" height="18.8"/>
<circle fill="#FFFFFF" cx="1.9" cy="25.1" r="1.4"/>
<circle fill="#FFFFFF" cx="43.1" cy="25.1" r="1.4"/>
<path fill="none" stroke="#FFFFFF" stroke-linecap="round" d="M30.3,4.1c-1,0-1.9,0.5-2.5,1.2H17.2c-0.6-0.7-1.5-1.2-2.5-1.2
	c-1.8,0-3.3,1.5-3.3,3.3s1.5,3.3,3.3,3.3c1,0,1.9-0.5,2.5-1.2h10.5c0.6,0.7,1.5,1.2,2.5,1.2c1.8,0,3.3-1.5,3.3-3.3
	S32.1,4.1,30.3,4.1z"/>
</svg>
