<?xml version="1.0" standalone="no"?>
<!DOCTYPE svg PUBLIC "-//W3C//DTD SVG 1.1//EN" "http://www.w3.org/Graphics/SVG/1.1/DTD/svg11.dtd" >
<svg>
<metadata>
Created by FontForge 20090622 at Mon Jul 20 13:01:50 2015
 By deploy user
Copyright (c) 2012 by Just Another Foundry. All rights reserved.
</metadata>
<defs>
<font id="BerninoSansOffc" horiz-adv-x="600" >
  <font-face 
    font-family="Bernino Sans Offc"
    font-weight="400"
    font-stretch="normal"
    units-per-em="1072"
    panose-1="2 0 0 0 0 0 0 0 0 0"
    ascent="860"
    descent="-212"
    x-height="535"
    cap-height="752"
    bbox="-279 -208 1017 962"
    underline-thickness="60"
    underline-position="-29"
    unicode-range="U+0020-U+2122"
  />
<missing-glyph horiz-adv-x="284" 
 />
    <glyph glyph-name=".notdef" horiz-adv-x="284" 
 />
    <glyph glyph-name=".null" horiz-adv-x="0" 
 />
    <glyph glyph-name="nonmarkingreturn" horiz-adv-x="357" 
 />
    <glyph glyph-name="space" unicode=" " horiz-adv-x="284" 
 />
    <glyph glyph-name="exclam" unicode="!" horiz-adv-x="319" 
d="M115 99h103v-99h-103v99zM115 752h103l-11 -548h-81z" />
    <glyph glyph-name="quotedbl" unicode="&#x22;" horiz-adv-x="413" 
d="M150 523h-55v257h88zM294 523h-55v257h88z" />
    <glyph glyph-name="numbersign" unicode="#" horiz-adv-x="750" 
d="M680 536l-6 -68h-120l-25 -248h120l-6 -68h-121l-15 -152h-81l15 152h-171l-15 -152h-81l15 152h-119l6 68h120l25 248h-120l6 68h121l14 152h82l-15 -152h171l15 152h81l-15 -152h119zM302 468l-25 -248h171l25 248h-171z" />
    <glyph glyph-name="dollar" unicode="$" horiz-adv-x="582" 
d="M294 -64h-75l9 83q-86 7 -156 29v78h8q74 -27 156 -34l22 228q-114 38 -155.5 81.5t-41.5 102.5q0 77 60.5 119.5t166.5 45.5l6 83h75l-10 -84q72 -6 140 -26v-76h-8q-68 24 -139 30l-21 -217q102 -31 148 -76.5t46 -113.5q0 -82 -61.5 -124.5t-164.5 -46.5zM437 179
q0 40 -29.5 68t-85.5 49l-18 -206q133 6 133 89zM149 511q0 -38 31.5 -64.5t86.5 -44.5l17 196q-135 -7 -135 -87z" />
    <glyph glyph-name="percent" unicode="%" horiz-adv-x="863" 
d="M755 682l-300 -358l-252 -324h-95v6l300 358l252 324h95v-6zM61 527q0 77 48.5 125t122.5 48t121.5 -48t47.5 -124q0 -77 -48.5 -125t-122.5 -48t-121.5 48t-47.5 124zM136 527q0 -48 27 -78t68 -30t68 30t27 79q0 48 -27 78t-68 30t-68 -30t-27 -79zM462 160
q0 77 48 125t123 48q74 0 121.5 -47.5t47.5 -124.5t-48 -125t-123 -48q-74 0 -121.5 48t-47.5 124zM537 160q0 -48 26.5 -78t68.5 -30t68.5 30t26.5 79q0 48 -26.5 78t-68.5 30t-68.5 -30t-26.5 -79z" />
    <glyph glyph-name="ampersand" unicode="&#x26;" horiz-adv-x="756" 
d="M743 0h-118l-105 98q-88 -110 -234 -110q-105 0 -170.5 52.5t-65.5 136.5q0 34 12.5 65t34 55.5t48.5 45t64 42.5q-53 53 -79 100.5t-26 99.5q0 80 54.5 130t146.5 50q88 0 141 -46t53 -118q0 -34 -14 -66.5t-49 -68t-105 -81.5l189 -175q40 84 53 199h87
q-18 -150 -81 -248l164 -153v-8zM301 59q99 0 168 87l-208 192q-55 -38 -82.5 -76t-27.5 -79q0 -56 42.5 -90t107.5 -34zM198 591q0 -39 21.5 -78t67.5 -86q40 28 67.5 53.5t42.5 54.5t15 59q0 46 -30.5 74.5t-76.5 28.5q-45 0 -76 -29t-31 -77z" />
    <glyph glyph-name="quotesingle" unicode="'" horiz-adv-x="275" 
d="M159 523h-64v257h94z" />
    <glyph glyph-name="parenleft" unicode="(" horiz-adv-x="351" 
d="M223 780h73q-68 -96 -102 -218.5t-34 -249.5q0 -128 34 -250.5t102 -218.5h-73q-78 97 -118 220t-40 249q0 125 40 248t118 220z" />
    <glyph glyph-name="parenright" unicode=")" horiz-adv-x="351" 
d="M55 -157q68 96 102 218.5t34 249.5q0 128 -34 250.5t-102 218.5h73q78 -97 118 -220t40 -249q0 -125 -40 -248t-118 -220h-73z" />
    <glyph glyph-name="asterisk" unicode="*" horiz-adv-x="554" 
d="M425 469l-56 -42l-92 129l-92 -129l-56 42l94 126l-150 46l21 68l150 -51l-3 158h72l-3 -158l150 51l21 -68l-150 -46z" />
    <glyph glyph-name="plus" unicode="+" horiz-adv-x="680" 
d="M382 22h-84v223h-214v75h214v223h84v-223h214v-75h-214v-223z" />
    <glyph glyph-name="comma" unicode="," horiz-adv-x="253" 
d="M86 102h98l-75 -259h-69z" />
    <glyph glyph-name="hyphen" unicode="-" horiz-adv-x="441" 
d="M379 273h-317v77h317v-77z" />
    <glyph glyph-name="period" unicode="." horiz-adv-x="252" 
d="M76 102h104v-102h-104v102z" />
    <glyph glyph-name="slash" unicode="/" horiz-adv-x="432" 
d="M411 780l-308 -808h-82l308 808h82z" />
    <glyph glyph-name="zero" unicode="0" horiz-adv-x="646" 
d="M569 347q0 -61 -6 -110.5t-22.5 -97t-43.5 -79.5t-72 -52t-104 -20t-103 20t-70.5 51.5t-43 79t-22 95.5t-5.5 107q0 61 6 110.5t22.5 97t44.5 80.5t72 52t103 19t101.5 -18.5t70.5 -51.5t44.5 -80.5t22 -95t5.5 -107.5zM433 127q35 67 35 217t-34.5 216.5t-110.5 66.5
t-110.5 -66.5t-34.5 -216.5t34.5 -216.5t110.5 -66.5t110 66z" />
    <glyph glyph-name="one" unicode="1" horiz-adv-x="390" 
d="M292 0h-95v604l-151 -51h-7v74l184 61h69v-688z" />
    <glyph glyph-name="two" unicode="2" horiz-adv-x="546" 
d="M482 76v-76h-423v66l112 116l65 69l45.5 53.5t36 48.5t28.5 49t16.5 47t6.5 49q0 60 -35.5 92.5t-105.5 32.5q-68 0 -149 -28h-7v76q82 24 166 24q112 0 172 -49t60 -138q0 -38 -12.5 -76t-30.5 -68.5t-50.5 -69.5t-59.5 -67l-72 -74q-45 -45 -74 -77h311z" />
    <glyph glyph-name="three" unicode="3" horiz-adv-x="533" 
d="M120 323v73h67q67 0 108 23q53 30 53 96q0 52 -34 80t-101 28q-64 0 -137 -24h-8v75q75 21 153 21q108 0 168 -44.5t60 -123.5q0 -62 -36.5 -104.5t-102.5 -56.5q69 -11 111 -57.5t42 -116.5q0 -90 -68.5 -144.5t-189.5 -54.5q-81 0 -144 21v73h7q68 -22 135 -22
q74 0 117 33.5t43 94.5q0 70 -59 105q-43 25 -117 25h-67z" />
    <glyph glyph-name="four" unicode="4" horiz-adv-x="602" 
d="M553 151h-110v-151h-89v151h-312v64l290 473h111v-463h110v-74zM129 225h225v363z" />
    <glyph glyph-name="five" unicode="5" horiz-adv-x="539" 
d="M443 612h-261l-13 -197q34 4 68 4q60 0 107.5 -16.5t76.5 -45t43.5 -66t14.5 -82.5q0 -100 -69.5 -158t-187.5 -58q-79 0 -150 23v76h7q77 -27 145 -27q74 0 115.5 37.5t41.5 102.5q0 67 -46 104t-132 37q-43 0 -109 -8h-8l19 350h338v-76z" />
    <glyph glyph-name="six" unicode="6" horiz-adv-x="606" 
d="M546 217q0 -100 -63 -164.5t-173 -64.5q-124 0 -184 83q-25 35 -37 89t-12 143q0 142 31.5 228t95.5 125t167 39q73 0 131 -15v-77h-8q-60 20 -125 20q-107 0 -152 -69t-44 -225q16 48 58.5 74t105.5 26q96 0 152.5 -58.5t56.5 -153.5zM315 359q-62 0 -100 -38.5
t-38 -108.5q0 -67 35 -110t100 -43q62 0 98.5 40.5t36.5 111.5q0 68 -34.5 108t-97.5 40z" />
    <glyph glyph-name="seven" unicode="7" horiz-adv-x="500" 
d="M356 612h-323v76h425v-53l-235 -635h-103z" />
    <glyph glyph-name="eight" unicode="8" horiz-adv-x="611" 
d="M88 527q0 81 60.5 126.5t157.5 45.5q96 0 156.5 -44.5t60.5 -123.5q0 -58 -35 -102t-95 -68q71 -26 111.5 -72.5t40.5 -112.5q0 -87 -68 -137t-176 -50q-106 0 -170.5 48t-64.5 132q0 65 41 112t110 73q-60 24 -94.5 68.5t-34.5 104.5zM186 526q0 -49 36.5 -82t106.5 -58
q42 20 69 56t27 82q0 49 -31 77.5t-88 28.5q-56 0 -88 -28.5t-32 -75.5zM165 177q0 -56 37.5 -87.5t102.5 -31.5t103.5 32t38.5 84q0 53 -42 89t-125 64q-115 -54 -115 -150z" />
    <glyph glyph-name="nine" unicode="9" horiz-adv-x="606" 
d="M60 471q0 102 64.5 165.5t171.5 63.5q124 0 184 -83q25 -35 37 -89t12 -142q0 -142 -31.5 -228t-95.5 -125.5t-168 -39.5q-72 0 -130 15v77h7q60 -20 125 -20q109 0 153 69.5t44 224.5q-16 -47 -58.5 -73.5t-106.5 -26.5q-96 0 -152 58.5t-56 153.5zM291 329
q62 0 100 38.5t38 109.5q0 66 -34.5 109t-100.5 43q-62 0 -98.5 -40.5t-36.5 -111.5q0 -69 35 -108.5t97 -39.5z" />
    <glyph glyph-name="colon" unicode=":" horiz-adv-x="268" 
d="M82 100h104v-100h-104v100zM82 535h104v-100h-104v100z" />
    <glyph glyph-name="semicolon" unicode=";" horiz-adv-x="268" 
d="M82 535h104v-100h-104v100zM88 102h98l-75 -259h-69z" />
    <glyph glyph-name="less" unicode="&#x3c;" horiz-adv-x="680" 
d="M538 518v-80l-357 -154l357 -158v-80l-435 195v82z" />
    <glyph glyph-name="equal" unicode="=" horiz-adv-x="680" 
d="M573 152h-466v70h466v-70zM573 342h-466v70h466v-70z" />
    <glyph glyph-name="greater" unicode="&#x3e;" horiz-adv-x="680" 
d="M142 46v80l357 154l-357 158v80l435 -195v-82z" />
    <glyph glyph-name="question" unicode="?" horiz-adv-x="526" 
d="M62 655v77q82 28 174 28q120 0 182 -49.5t62 -135.5q0 -28 -7 -53t-17 -42.5t-26 -36.5t-29 -30l-33 -27q-19 -16 -29 -26q-19 -19 -31 -37t-17 -37.5t-6 -35.5t-1 -46h-89q0 28 0.5 42t4 35.5t11.5 40.5t23 40.5t37 41.5l25 22l25 22q9 8 23 24t21 29t12.5 31t5.5 37
q0 56 -41 86.5t-115 30.5q-77 0 -157 -31h-8zM188 99h103v-99h-103v99z" />
    <glyph glyph-name="at" unicode="@" horiz-adv-x="1026" 
d="M684 495v-255v-26q0 -8 1.5 -21t5 -19.5t8.5 -13.5t14 -10t21 -3q47 0 76.5 45.5t29.5 128.5q0 92 -37 162.5t-108.5 111t-168.5 40.5q-150 0 -245 -93t-95 -242q0 -74 25 -136t73 -106t118.5 -68.5t159.5 -24.5q135 0 275 51h8v-70q-149 -46 -286 -46
q-104 0 -188.5 29.5t-141.5 81t-88 124.5t-31 160q0 118 54 210t149 143.5t214 51.5q88 0 161.5 -29t122.5 -79t77 -118t28 -145q0 -110 -52 -176.5t-136 -66.5q-47 0 -73.5 23t-31.5 64q-11 -36 -44 -61.5t-86 -25.5q-78 0 -124.5 55t-46.5 154t48 155t130 56q47 0 74 -19
t41 -52l22 60h47zM401 295q0 -144 105 -144t105 144q0 146 -105 146t-105 -146z" />
    <glyph glyph-name="A" unicode="A" horiz-adv-x="664" 
d="M651 0h-104l-71 210h-300l-74 -210h-89l274 752h98zM329 646l-127 -362h249z" />
    <glyph glyph-name="B" unicode="B" horiz-adv-x="656" 
d="M98 752h213q28 0 54.5 -1t57.5 -8t56 -21q83 -47 83 -154q0 -74 -36.5 -115.5t-91.5 -51.5q33 -4 62.5 -16.5t54.5 -34t40 -57t15 -79.5q0 -112 -89 -171q-22 -14 -46.5 -23.5t-51.5 -13.5t-47 -5t-49 -1h-225v752zM194 356v-284h126q26 0 42 1t41 8t45 20q57 38 57 114
q0 79 -67 116q-22 12 -47 17.5t-40 6.5t-41 1h-116zM194 680v-249h110q24 0 36 0.5t31 4.5t34 13q56 32 56 106q0 77 -54 107q-16 8 -35 12.5t-32.5 5t-37.5 0.5h-108z" />
    <glyph glyph-name="C" unicode="C" horiz-adv-x="630" 
d="M573 96v-78q-74 -26 -163 -26q-73 0 -132 20t-100 55t-68.5 84.5t-40 105t-12.5 119.5t13.5 121.5t40 105t67 82t100 55t132.5 20.5q89 0 163 -26v-78h-8q-76 30 -151 30q-64 0 -113.5 -24t-80 -66t-45.5 -96.5t-15 -119.5q0 -52 9.5 -99t29.5 -87t50 -68t72.5 -44
t94.5 -16q75 0 149 30h8z" />
    <glyph glyph-name="D" unicode="D" horiz-adv-x="754" 
d="M98 752h191q75 0 114.5 -5t73.5 -15t64 -27q73 -41 114.5 -123t41.5 -205q0 -242 -162 -331q-30 -16 -63 -26t-73 -15t-110 -5h-191v752zM195 678v-604h100q49 0 79.5 3.5t56 11t46.5 20.5q117 67 117 267t-118 267q-22 12 -47.5 20t-55 11.5t-78.5 3.5h-100z" />
    <glyph glyph-name="E" unicode="E" horiz-adv-x="590" 
d="M98 752h421v-75h-325v-246h277v-75h-277v-281h341v-75h-437v752z" />
    <glyph glyph-name="F" unicode="F" horiz-adv-x="546" 
d="M98 752h410v-76h-313v-283h278v-76h-278v-317h-97v752z" />
    <glyph glyph-name="G" unicode="G" horiz-adv-x="731" 
d="M410 393h243v-362q-101 -40 -219 -40q-84 0 -152 22.5t-119 69.5t-78.5 120t-27.5 168q0 98 29 172t80.5 121.5t122.5 71.5t158 24q99 0 184 -27v-81h-8q-83 34 -175 34q-64 0 -116.5 -18t-90.5 -54.5t-59.5 -96t-21.5 -138.5q0 -78 20.5 -138t57 -98.5t86.5 -58
t109 -19.5q65 0 124 21v231h-147v76z" />
    <glyph glyph-name="H" unicode="H" horiz-adv-x="764" 
d="M666 0h-97v356h-374v-356h-97v752h97v-321h374v321h97v-752z" />
    <glyph glyph-name="I" unicode="I" horiz-adv-x="293" 
d="M98 752h97v-752h-97v752z" />
    <glyph glyph-name="J" unicode="J" horiz-adv-x="425" 
d="M14 7v76h8q47 -15 84 -15q70 0 102 46q10 16 15 33t6 35t1 46v524h97v-518q0 -46 -3.5 -74.5t-12 -50t-21.5 -40.5q-54 -75 -179 -75q-51 0 -97 13z" />
    <glyph glyph-name="K" unicode="K" horiz-adv-x="665" 
d="M98 752h96v-358l327 358h107l-292 -316l302 -436h-116l-251 369l-77 -78v-291h-96v752z" />
    <glyph glyph-name="L" unicode="L" horiz-adv-x="523" 
d="M98 752h97v-676h313v-76h-410v752z" />
    <glyph glyph-name="M" unicode="M" horiz-adv-x="973" 
d="M99 752h125l265 -615l261 615h124v-752h-96v632l-253 -597h-87l-252 597v-632h-87v752z" />
    <glyph glyph-name="N" unicode="N" horiz-adv-x="776" 
d="M98 752h97l396 -595v595h87v-752h-89l-404 602v-602h-87v752z" />
    <glyph glyph-name="O" unicode="O" horiz-adv-x="790" 
d="M732 379q0 -185 -88.5 -288.5t-250.5 -103.5q-161 0 -248 101.5t-87 284.5q0 185 88.5 288.5t250.5 103.5q161 0 248 -101t87 -285zM221 140q61 -79 174 -79t173.5 79.5t60.5 235.5t-60.5 235.5t-173.5 79.5t-173.5 -79.5t-60.5 -235.5t60 -236z" />
    <glyph glyph-name="P" unicode="P" horiz-adv-x="626" 
d="M98 752h178q32 0 68 -1.5t75.5 -11t69.5 -28.5q46 -30 69.5 -79.5t23.5 -111.5q0 -68 -27 -119t-75 -81q-42 -25 -89 -32.5t-116 -7.5h-80v-280h-97v752zM195 678v-324h95q28 0 45.5 1t44 8t44.5 20q28 20 42 56t14 77q0 42 -14 77.5t-42 55.5q-20 14 -45.5 20.5t-43 7.5
t-45.5 1h-95z" />
    <glyph glyph-name="Q" unicode="Q" horiz-adv-x="790" 
d="M732 379q0 -128 -43.5 -218.5t-125.5 -134.5l109 -147h-114l-80 117q-47 -9 -85 -9q-161 0 -248 101.5t-87 284.5q0 185 88.5 288.5t250.5 103.5q161 0 248 -101t87 -285zM221 140q61 -79 174 -79t173.5 79.5t60.5 235.5t-60.5 235.5t-173.5 79.5t-173.5 -79.5
t-60.5 -235.5t60 -236z" />
    <glyph glyph-name="R" unicode="R" horiz-adv-x="659" 
d="M337 317h-142v-317h-97v752h227q36 0 63.5 -2t59.5 -11t59 -27q82 -54 82 -174q0 -85 -41 -137.5t-114 -70.5l196 -330h-111zM195 678v-285h129q77 0 113 25q51 35 51 118q0 82 -51 117q-37 25 -113 25h-129z" />
    <glyph glyph-name="S" unicode="S" horiz-adv-x="570" 
d="M479 732v-77h-8q-88 33 -163 33q-68 0 -105.5 -29.5t-37.5 -79.5q0 -28 12.5 -50.5t32.5 -38.5t45.5 -30t54 -27t58 -28t55 -33.5t45.5 -41t32 -55.5t12 -73q0 -54 -21 -95t-57.5 -65.5t-84 -37t-103.5 -12.5q-99 0 -183 35v81h8q99 -44 183 -44q74 0 116 35t42 92
q0 38 -19 66t-49 47.5t-68 37.5l-75 37q-37 19 -67 42.5t-49.5 60.5t-19.5 85q0 89 64 141t177 52q86 0 173 -28z" />
    <glyph glyph-name="T" unicode="T" horiz-adv-x="585" 
d="M23 752h539v-76h-221v-676h-97v676h-221v76z" />
    <glyph glyph-name="U" unicode="U" horiz-adv-x="754" 
d="M98 752h97v-476q0 -40 5 -71t18 -59t33.5 -46t53.5 -28.5t77 -10.5t77 10.5t53.5 28.5t33.5 46t18 59t5 71v476h87v-459q0 -54 -4 -83.5t-9.5 -50.5t-17.5 -46t-29 -44q-72 -82 -221 -82q-146 0 -217 82q-21 24 -34.5 54t-18.5 62.5t-6 53t-1 54.5v459z" />
    <glyph glyph-name="V" unicode="V" horiz-adv-x="677" 
d="M21 752h107l215 -638l224 638h89l-276 -752h-92z" />
    <glyph glyph-name="W" unicode="W" horiz-adv-x="1014" 
d="M30 752h103l162 -624l172 603h97l166 -603l168 624h86l-213 -752h-96l-169 608l-173 -608h-98z" />
    <glyph glyph-name="X" unicode="X" horiz-adv-x="695" 
d="M42 752h116l198 -305l198 305h98l-245 -363l261 -389h-117l-212 328l-214 -328h-97l259 387z" />
    <glyph glyph-name="Y" unicode="Y" horiz-adv-x="634" 
d="M13 752h113l201 -367l202 367h92l-256 -453v-299h-97v298z" />
    <glyph glyph-name="Z" unicode="Z" horiz-adv-x="635" 
d="M570 752v-66l-402 -611h410v-75h-524v68l401 609h-387v75h502z" />
    <glyph glyph-name="bracketleft" unicode="[" horiz-adv-x="389" 
d="M98 780h234v-72h-147v-793h147v-72h-234v937z" />
    <glyph glyph-name="backslash" unicode="\" horiz-adv-x="432" 
d="M329 -28l-308 808h82l308 -808h-82z" />
    <glyph glyph-name="bracketright" unicode="]" horiz-adv-x="392" 
d="M294 -157h-234v72h147v793h-147v72h234v-937z" />
    <glyph glyph-name="asciicircum" unicode="^" horiz-adv-x="510" 
d="M456 408h-93l-111 257l-112 -257h-86l155 344h92z" />
    <glyph glyph-name="underscore" unicode="_" horiz-adv-x="390" 
d="M394 -106h-398v69h398v-69z" />
    <glyph glyph-name="grave" unicode="`" 
d="M339 631h-73l-132 149h109z" />
    <glyph glyph-name="a" unicode="a" horiz-adv-x="554" 
d="M94 450v78q82 23 164 23q135 0 182 -67q15 -21 22.5 -52t8.5 -53.5t1 -64.5v-314h-71l-21 93q-10 -45 -49.5 -75t-105.5 -30q-81 0 -129.5 43t-48.5 116q0 94 82 136q24 12 57.5 20t77 10.5t113.5 2.5q0 32 -0.5 47.5t-4.5 36t-13 33.5q-28 45 -112 45q-70 0 -145 -28h-8
zM147 149q0 -40 25.5 -63.5t71.5 -23.5q37 0 67 16t46 46q20 39 20 106v22q-79 0 -118 -4t-66 -19q-46 -26 -46 -80z" />
    <glyph glyph-name="b" unicode="b" horiz-adv-x="634" 
d="M89 780h95v-333q14 50 57.5 79t107.5 29q105 0 167 -74.5t62 -206.5q0 -135 -64 -210.5t-176 -75.5q-126 0 -161 97l-31 -85h-57v780zM329 481q-74 0 -111 -55.5t-37 -154.5q0 -100 37 -155.5t110 -55.5q74 0 111 55.5t37 155.5q0 47 -8 84.5t-26 66t-46.5 44t-66.5 15.5
z" />
    <glyph glyph-name="c" unicode="c" horiz-adv-x="486" 
d="M436 89v-79q-55 -18 -120 -18q-125 0 -193 74t-68 206.5t69.5 205.5t191.5 73q64 0 120 -18v-79h-8q-56 23 -108 23q-77 0 -120 -53.5t-43 -149.5t42.5 -152t120.5 -56q54 0 108 23h8z" />
    <glyph glyph-name="d" unicode="d" horiz-adv-x="634" 
d="M450 780h95v-780h-73l-21 96q-14 -51 -58 -79.5t-109 -28.5q-107 0 -167.5 75.5t-60.5 206.5q0 132 62.5 208.5t172.5 76.5q124 0 159 -99v324zM306 481q-52 0 -85 -27t-48 -73t-15 -109q0 -47 8.5 -84.5t25.5 -66t46 -44t67 -15.5q74 0 111 55t37 155q0 99 -37 154
t-110 55z" />
    <glyph glyph-name="e" unicode="e" horiz-adv-x="565" 
d="M478 93v-77q-73 -24 -158 -24q-130 0 -196 67q-69 70 -69 211q0 134 63 210t175 76q126 0 180 -94q12 -22 21 -53t11.5 -67.5t2.5 -92.5h-353q0 -90 43 -137.5t127 -47.5q70 0 145 29h8zM155 317h254q0 169 -119 169q-122 0 -135 -169z" />
    <glyph glyph-name="f" unicode="f" horiz-adv-x="425" 
d="M390 463h-160v-463h-95v463h-107v72h107v41q0 36 0.5 53t5.5 40t16 42q40 70 154 70q43 0 79 -8v-77h-8q-36 12 -70 12q-52 0 -71 -39q-8 -16 -9.5 -33t-1.5 -61v-40h160v-72z" />
    <glyph glyph-name="g" unicode="g" horiz-adv-x="634" 
d="M545 543v-477q0 -47 -2 -76.5t-10.5 -57.5t-26.5 -52q-66 -88 -231 -88q-99 0 -181 30v83h8q95 -40 178 -40q52 0 91 16.5t58 48.5q10 15 15.5 38.5t6 47t0.5 52.5v41q-16 -49 -59 -76t-107 -27q-106 0 -168 72t-62 200q0 130 63.5 203.5t175.5 73.5q124 0 163 -94l32 82
h56zM305 78q40 0 69 15.5t46 43t25 63.5t8 80t-8 80t-25 64t-46.5 43.5t-68.5 15.5t-68.5 -15.5t-46.5 -43.5t-25 -64t-8 -80t8 -80t25 -63.5t46 -43t69 -15.5z" />
    <glyph glyph-name="h" unicode="h" horiz-adv-x="610" 
d="M89 780h95v-326q25 101 156 101q108 0 156 -70q15 -22 22 -47.5t8.5 -51.5t1.5 -66v-320h-96v321q0 26 -1 43t-5.5 34t-14.5 32q-30 46 -101 46q-32 0 -55.5 -9.5t-37 -24.5t-21.5 -35.5t-10 -36.5t-2 -34v-336h-95v780z" />
    <glyph glyph-name="i" unicode="i" horiz-adv-x="273" 
d="M86 752h101v-97h-101v97zM89 543h95v-543h-95v543z" />
    <glyph glyph-name="j" unicode="j" horiz-adv-x="273" 
d="M-46 -196v72h8q22 -4 41 -4q51 0 72 36q6 11 9.5 25.5t4 27t0.5 34.5v548h95v-545q0 -28 -1 -45.5t-6 -40t-15 -39.5q-41 -73 -155 -73q-29 0 -53 4zM86 752h101v-97h-101v97z" />
    <glyph glyph-name="k" unicode="k" horiz-adv-x="566" 
d="M89 780h95v-485l229 248h108l-212 -224l222 -319h-112l-173 256l-62 -61v-195h-95v780z" />
    <glyph glyph-name="l" unicode="l" horiz-adv-x="273" 
d="M89 780h95v-780h-95v780z" />
    <glyph glyph-name="m" unicode="m" horiz-adv-x="927" 
d="M89 543h73l20 -93q23 105 155 105q70 0 108.5 -28.5t57.5 -82.5q35 111 162 111q103 0 149 -70q20 -30 25.5 -66.5t5.5 -98.5v-320h-96v321q0 41 -3.5 65t-16.5 44q-29 46 -96 46q-30 0 -52.5 -10t-34.5 -25t-19.5 -35t-9.5 -36t-2 -34v-336h-96v321q0 41 -3.5 65
t-16.5 44q-29 46 -96 46q-30 0 -52.5 -10t-34.5 -25t-19.5 -35t-9.5 -36t-2 -34v-336h-96v543z" />
    <glyph glyph-name="n" unicode="n" horiz-adv-x="611" 
d="M89 543h73l20 -93q25 105 159 105q108 0 156 -70q15 -22 22 -49t8.5 -51.5t1.5 -64.5v-320h-96v321q0 26 -1 43t-5.5 34t-14.5 32q-30 46 -102 46q-32 0 -56 -10t-37.5 -25.5t-20.5 -35t-9 -35.5t-2 -34v-336h-96v543z" />
    <glyph glyph-name="o" unicode="o" horiz-adv-x="613" 
d="M307 556q119 0 185 -73.5t66 -210t-66 -211t-186 -74.5q-119 0 -185 73.5t-66 209.5t65.5 211t186.5 75zM307 58q74 0 111.5 55t37.5 158q0 214 -151 214q-73 0 -110.5 -54.5t-37.5 -158.5q0 -214 150 -214z" />
    <glyph glyph-name="p" unicode="p" horiz-adv-x="634" 
d="M184 -200h-95v743h73l21 -96q15 53 59.5 80.5t107.5 27.5q107 0 167.5 -75.5t60.5 -205.5q0 -132 -62 -209t-173 -77q-123 0 -159 99v-287zM328 62q39 0 68 16t46.5 44.5t25.5 66t8 83.5t-8 83t-25.5 65.5t-46 44.5t-67.5 16q-73 0 -110.5 -55t-37.5 -155
q0 -63 14.5 -109t48 -73t84.5 -27z" />
    <glyph glyph-name="q" unicode="q" horiz-adv-x="634" 
d="M545 -200h-95v296q-14 -49 -56.5 -78.5t-108.5 -29.5q-106 0 -167.5 74.5t-61.5 206.5q0 134 64 210t176 76q126 0 161 -97l31 85h57v-743zM305 62q73 0 110.5 54.5t37.5 156.5q0 101 -37.5 155.5t-109.5 54.5q-73 0 -110.5 -55t-37.5 -156q0 -46 8.5 -84.5t26 -66.5
t46 -43.5t66.5 -15.5z" />
    <glyph glyph-name="r" unicode="r" horiz-adv-x="388" 
d="M363 548v-90q-25 5 -53 5q-47 0 -74.5 -18t-39 -47t-11.5 -80v-318h-96v543h72l19 -104q15 59 55.5 84t110.5 25h17z" />
    <glyph glyph-name="s" unicode="s" horiz-adv-x="467" 
d="M388 531v-79h-8q-66 26 -124 26q-46 0 -70.5 -18t-24.5 -48q0 -22 13.5 -38t35.5 -28t49 -23.5t54 -26t49 -33t35.5 -47t13.5 -66.5q0 -53 -27.5 -89.5t-74 -52.5t-104.5 -16q-79 0 -142 27v79h8q81 -33 143 -33q48 0 74.5 20.5t26.5 54.5q0 24 -13.5 42t-35.5 31
t-49 24.5t-54 25t-49 31.5t-35.5 44t-13.5 61q0 70 52 111t144 41q66 0 127 -20z" />
    <glyph glyph-name="t" unicode="t" horiz-adv-x="434" 
d="M383 80v-76q-41 -12 -92 -12q-102 0 -139 57q-10 16 -14.5 32t-6 39.5t-1.5 67.5v275h-102v72h102v151l95 29v-180h158v-72h-158v-274q0 -30 1 -46.5t3.5 -26.5t7.5 -20q17 -31 64 -31q37 0 74 15h8z" />
    <glyph glyph-name="u" unicode="u" horiz-adv-x="610" 
d="M521 0h-73l-20 93q-11 -49 -50.5 -77t-106.5 -28q-103 0 -150 68q-20 30 -26 65t-6 98v324h96v-321q0 -42 3.5 -66t17.5 -43q32 -46 99 -46q120 0 120 140v336h96v-543z" />
    <glyph glyph-name="v" unicode="v" horiz-adv-x="594" 
d="M43 543h110l152 -431l156 431h90l-208 -543h-93z" />
    <glyph glyph-name="w" unicode="w" horiz-adv-x="885" 
d="M50 543h103l120 -431l130 421h95l126 -421l124 431h86l-167 -543h-98l-127 424l-131 -424h-98z" />
    <glyph glyph-name="x" unicode="x" horiz-adv-x="575" 
d="M49 543h119l127 -202l128 202h100l-177 -262l190 -281h-119l-139 218l-139 -218h-100l188 278z" />
    <glyph glyph-name="y" unicode="y" horiz-adv-x="591" 
d="M548 543l-291 -743h-96l89 213l-208 530h110l150 -419l156 419h90z" />
    <glyph glyph-name="z" unicode="z" horiz-adv-x="511" 
d="M447 535v-72l-275 -391h281v-72h-392v76l274 387h-270v72h382z" />
    <glyph glyph-name="braceleft" unicode="{" horiz-adv-x="388" 
d="M331 780v-72q-24 0 -40.5 -1.5t-31 -6t-23.5 -13.5t-15 -25t-6 -40v-204q0 -16 -0.5 -25t-4.5 -24t-11 -24t-21.5 -19t-35.5 -15q21 -5 35.5 -14.5t21.5 -19t11 -24.5t4.5 -24t0.5 -25v-204q0 -23 5 -38t15 -25t26.5 -14.5t31.5 -6t38 -1.5v-72q-30 0 -45.5 0.5t-40.5 4
t-43.5 12t-33.5 21.5q-14 13 -23 29t-12.5 34t-4 31t-0.5 33v202q0 33 -16 49t-73 16v72q57 0 73 16t16 50v202q0 20 0.5 32t4 31t12.5 34.5t23 28.5q16 14 36 22.5t42.5 12t38.5 4t46 0.5z" />
    <glyph glyph-name="bar" unicode="|" horiz-adv-x="288" 
d="M98 780h92v-980h-92v980z" />
    <glyph glyph-name="braceright" unicode="}" horiz-adv-x="388" 
d="M57 -85q24 0 40.5 1.5t31 6t23.5 13.5t15 25t6 40v203q0 16 0.5 25t4.5 24t11 24t21.5 19t35.5 15q-21 5 -35.5 14.5t-21.5 19t-11 24.5t-4.5 24t-0.5 25v205q0 23 -5 38t-15 25t-26.5 14.5t-31.5 6t-38 1.5v72q30 0 45.5 -0.5t40.5 -4t43.5 -12t33.5 -21.5
q14 -13 23 -29t12.5 -34t4 -31t0.5 -33v-203q0 -33 16 -49t73 -16v-72q-57 0 -73 -16t-16 -50v-201q0 -20 -0.5 -32t-4 -31t-12.5 -34.5t-23 -28.5q-16 -14 -36 -22.5t-42.5 -12t-38.5 -4t-46 -0.5v72z" />
    <glyph glyph-name="asciitilde" unicode="~" horiz-adv-x="680" 
d="M596 362v-86q-24 -30 -63 -52t-85 -22q-28 0 -54 9t-46 21l-39 24q-19 12 -40.5 21t-41.5 9q-37 0 -72 -25t-61 -59h-10v86q24 30 63 52t85 22q28 0 54 -9t46 -21l39 -24q19 -12 40.5 -21t41.5 -9q37 0 72 25t61 59h10z" />
    <glyph glyph-name="nonbreakingspace" unicode="&#xa0;" horiz-adv-x="284" 
 />
    <glyph glyph-name="exclamdown" unicode="&#xa1;" horiz-adv-x="299" 
d="M192 444h-103v99h103v-99zM192 -200h-103l11 539h81z" />
    <glyph glyph-name="cent" unicode="&#xa2;" horiz-adv-x="524" 
d="M319 -64h-73l12 112q-96 18 -149.5 85.5t-53.5 178.5q0 122 66 191t180 78l8 107h73l-12 -108q48 -4 103 -18v-72h-8q-53 17 -101 21l-33 -400q63 0 134 23h8v-73q-70 -19 -147 -19zM144 314q0 -74 31 -125t89 -69l32 391q-73 -10 -112.5 -61.5t-39.5 -135.5z" />
    <glyph glyph-name="sterling" unicode="&#xa3;" horiz-adv-x="545" 
d="M60 315v73h84q-17 33 -28 64t-11 66q0 83 60 130t163 47q65 0 123 -16v-76h-8q-59 20 -114 20q-62 0 -95 -27.5t-33 -75.5q0 -35 20 -74l30 -58h183v-73h-158q6 -26 6 -54q0 -69 -29.5 -115.5t-74.5 -71.5h313v-74h-432v61q127 66 127 188q0 32 -10 66h-116z" />
    <glyph glyph-name="yen" unicode="&#xa5;" horiz-adv-x="656" 
d="M541 144h-167v-144h-92v144h-167v64h167v79h-167v64h150l-222 337h108l185 -291l186 291h91l-223 -337h151v-64h-167v-79h167v-64z" />
    <glyph glyph-name="section" unicode="&#xa7;" horiz-adv-x="503" 
d="M73 -2h8q75 -30 146 -30q52 0 81.5 17t29.5 49q0 20 -12 36t-32 28t-45.5 25t-52 24.5t-52 28t-45 34t-32 44t-12.5 57.5q0 50 29 81.5t75 43.5q-42 23 -65.5 52t-23.5 71q0 62 54 99.5t148 37.5q77 0 153 -23v-73h-8q-76 28 -146 28q-50 0 -79 -16t-29 -47
q0 -22 15.5 -39.5t40.5 -31t56 -27t61 -29t55 -34t41 -47t16 -63.5q0 -51 -30 -83.5t-75 -46.5q42 -24 65 -54t23 -71q0 -64 -53.5 -101.5t-151.5 -37.5q-81 0 -153 24v74zM364 277q0 13 -4 25t-9.5 21t-17 19t-20 16t-32.5 19.5t-77 35.5q-28 -11 -46.5 -33t-18.5 -53
q0 -14 3.5 -26t9.5 -21.5t17 -19.5t19 -16t26 -16t26 -14l29 -14q21 -10 29 -13q66 32 66 90z" />
    <glyph glyph-name="dieresis" unicode="&#xa8;" 
d="M157 735h90v-95h-90v95zM353 735h90v-95h-90v95z" />
    <glyph glyph-name="copyright" unicode="&#xa9;" horiz-adv-x="891" 
d="M546 227v-68q-50 -20 -109 -20q-90 0 -147.5 53.5t-57.5 151t57.5 151t147.5 53.5q59 0 109 -20v-68h-8q-45 20 -94 20q-60 0 -92.5 -35.5t-32.5 -101t32.5 -101t92.5 -35.5q49 0 94 20h8zM57 344q0 102 44.5 183t127 127t190.5 46t190.5 -46t127 -127t44.5 -183
q0 -103 -44.5 -184t-127 -127t-190.5 -46t-190.5 46t-127 127t-44.5 184zM129 344q0 -84 35 -150.5t101 -105.5t154 -39t154 39t101 106t35 149.5t-35 149.5t-101 106t-154 39t-154 -39t-101 -105.5t-35 -149.5z" />
    <glyph glyph-name="ordfeminine" unicode="&#xaa;" horiz-adv-x="410" 
d="M71 685v60q56 15 125 15q102 0 135 -46q10 -14 15.5 -35t6 -35t0.5 -40v-209h-62l-15 61q-9 -31 -37.5 -50t-75.5 -19q-58 0 -92.5 28.5t-34.5 80.5q0 62 53 90q22 12 53.5 17.5t56.5 6.5t73 1q0 30 -2 42t-9 23q-19 27 -78 27q-54 0 -104 -18h-8zM119 498
q0 -26 17.5 -40t49.5 -14q26 0 44 9t27 23.5t12 27t3 25.5v31q-35 0 -62 -1.5t-42.5 -6t-26.5 -11t-16.5 -17.5t-5.5 -26z" />
    <glyph glyph-name="guillemotleft" unicode="&#xab;" horiz-adv-x="568" 
d="M279 311l134 209h95l-140 -207l140 -210h-95zM60 311l134 209h95l-140 -207l140 -210h-95z" />
    <glyph glyph-name="softhyphen" unicode="&#xad;" horiz-adv-x="441" 
d="M379 273h-317v77h317v-77z" />
    <glyph glyph-name="registered" unicode="&#xae;" horiz-adv-x="540" 
d="M43 633q0 97 63.5 158t163.5 61t163.5 -61t63.5 -158q0 -98 -63.5 -158.5t-163.5 -60.5t-163.5 60.5t-63.5 158.5zM145 755q-46 -47 -46 -122t46.5 -122.5t124.5 -47.5t124.5 47.5t46.5 122.5t-46.5 122.5t-124.5 47.5t-125 -48zM271 597h-36v-80h-56v237h83
q33 0 49.5 -4t27.5 -12q29 -20 29 -60q0 -52 -45 -72l54 -89h-63zM235 713v-75h35q42 0 42 37q0 38 -42 38h-35z" />
    <glyph glyph-name="macron" unicode="&#xaf;" 
d="M442 704v-62h-284v62h284z" />
    <glyph glyph-name="degree" unicode="&#xb0;" horiz-adv-x="495" 
d="M247 784q76 0 124.5 -46t48.5 -118t-48 -117.5t-125 -45.5q-76 0 -124 45.5t-48 117.5t48.5 118t123.5 46zM174 694q-27 -30 -27 -74t27.5 -73.5t72.5 -29.5t73 29.5t28 73.5t-28 74t-73 30t-73 -30z" />
    <glyph glyph-name="plusminus" unicode="&#xb1;" horiz-adv-x="680" 
d="M379 134h-78v170h-194v68h194v171h78v-171h194v-68h-194v-170zM573 0h-466v68h466v-68z" />
    <glyph glyph-name="two.superior" unicode="&#xb2;" horiz-adv-x="371" 
d="M324 424v-61h-279v52l86 87q13 12 33.5 33.5t29.5 34t19.5 29.5t14.5 31t4 28q0 32 -20.5 49t-61.5 17q-42 0 -93 -16h-5v62q54 14 109 14q78 0 117.5 -31t39.5 -85q0 -22 -8 -45t-18.5 -40t-31 -39.5t-36.5 -37.5l-86 -82h186z" />
    <glyph glyph-name="three.superior" unicode="&#xb3;" horiz-adv-x="368" 
d="M85 548v62h43q45 0 67 12q29 16 29 47q0 55 -77 55q-42 0 -92 -15h-4v62q48 13 104 13q74 0 114 -28t40 -76q0 -38 -23 -63t-64 -34q43 -6 70 -32.5t27 -69.5q0 -56 -47 -89t-129 -33q-54 0 -97 13v62h5q47 -15 91 -15t68 17.5t24 47.5q0 34 -32 52q-11 6 -26.5 9
t-22.5 3h-25h-43z" />
    <glyph glyph-name="acute" unicode="&#xb4;" 
d="M334 631h-73l96 149h109z" />
    <glyph glyph-name="mu" unicode="&#xb5;" horiz-adv-x="610" 
d="M184 -200h-95v743h96v-323q0 -44 3.5 -68t17.5 -43q30 -45 99 -45q120 0 120 140v339h96v-543h-70l-17 80q-10 -42 -42.5 -66.5t-84.5 -24.5q-84 0 -125 70z" />
    <glyph glyph-name="periodcentered" unicode="&#xb7;" horiz-adv-x="147" 
d="M124 328v-102h-101v102h101z" />
    <glyph glyph-name="one.superior" unicode="&#xb9;" horiz-adv-x="278" 
d="M210 363h-81v346l-92 -29h-5v62l123 38h55v-417z" />
    <glyph glyph-name="ordmasculine" unicode="&#xba;" horiz-adv-x="444" 
d="M407 577q0 -92 -49 -141.5t-138 -49.5q-88 0 -135.5 48t-47.5 140t48.5 141.5t136.5 49.5q89 0 137 -49t48 -139zM221 445q100 0 100 130q0 64 -25 97.5t-75 33.5q-98 0 -98 -130q0 -131 98 -131z" />
    <glyph glyph-name="guillemotright" unicode="&#xbb;" horiz-adv-x="568" 
d="M289 311l-134 -208h-95l140 206l-140 211h95zM508 311l-134 -208h-95l140 206l-140 211h95z" />
    <glyph glyph-name="onehalf" unicode="&#xbd;" horiz-adv-x="943" 
d="M247 334h-82v376l-121 -43h-8v62l154 51h57v-446zM820 772l-360 -449l-319 -415h-89v8l360 449l319 415h89v-8zM887 -30v-62h-303v54q12 12 39 37l38 35q11 10 32 31t30 31t23 27t20 27t13.5 24.5t10 27t2.5 24.5q0 34 -22 53t-66 19q-45 0 -96 -17h-8v63q55 16 115 16
q81 0 121 -34t40 -92q0 -24 -8 -48.5t-19 -42.5t-34 -43.5t-38 -40t-48 -44t-49 -45.5h207z" />
    <glyph glyph-name="questiondown" unicode="&#xbf;" horiz-adv-x="450" 
d="M418 -103v-77q-77 -28 -174 -28q-122 0 -183 50t-61 135q0 28 7 52.5t17 42t26 36t30 29.5l32 27l29 25q20 19 31.5 36t16.5 38t6 36t1 40h89q0 -23 -0.5 -37t-4.5 -37.5t-11.5 -40t-22.5 -38t-37 -41.5q-6 -6 -27.5 -24t-32 -28.5t-25 -28.5t-21 -38t-6.5 -43
q0 -56 41.5 -86.5t115.5 -30.5q80 0 156 31h8zM292 444h-103v99h103v-99z" />
    <glyph glyph-name="Agrave" unicode="&#xc0;" horiz-adv-x="664" 
d="M651 0h-104l-71 210h-300l-74 -210h-89l274 752h98zM329 646l-127 -362h249zM375 839h-84l-153 123h123z" />
    <glyph glyph-name="Aacute" unicode="&#xc1;" horiz-adv-x="664" 
d="M651 0h-104l-71 210h-300l-74 -210h-89l274 752h98zM329 646l-127 -362h249zM372 839h-83l113 123h123z" />
    <glyph glyph-name="Acircumflex" unicode="&#xc2;" horiz-adv-x="664" 
d="M651 0h-104l-71 210h-300l-74 -210h-89l274 752h98zM329 646l-127 -362h249zM284 962h95l118 -123h-89l-79 78l-77 -78h-86z" />
    <glyph glyph-name="Atilde" unicode="&#xc3;" horiz-adv-x="664" 
d="M651 0h-104l-71 210h-300l-74 -210h-89l274 752h98zM329 646l-127 -362h249zM173 839v60q16 16 42.5 27.5t58.5 11.5q31 0 74.5 -17.5t64.5 -17.5q42 0 87 35h8v-60q-16 -16 -43 -27.5t-59 -11.5q-31 0 -73.5 17.5t-63.5 17.5q-44 0 -88 -35h-8z" />
    <glyph glyph-name="Adieresis" unicode="&#xc4;" horiz-adv-x="664" 
d="M651 0h-104l-71 210h-300l-74 -210h-89l274 752h98zM329 646l-127 -362h249zM171 931h95v-92h-95v92zM398 931h95v-92h-95v92z" />
    <glyph glyph-name="Aring" unicode="&#xc5;" horiz-adv-x="664" 
d="M207 825q0 52 35.5 83t89.5 31t89.5 -31.5t35.5 -82.5q0 -34 -16.5 -59t-47.5 -37l258 -729h-104l-71 210h-300l-74 -210h-89l264 726q-34 12 -52 37.5t-18 61.5zM329 646l-127 -362h249zM269 822q0 -27 17.5 -44.5t45.5 -17.5t45 17t17 45t-17 45.5t-45 17.5
t-45.5 -17.5t-17.5 -45.5z" />
    <glyph glyph-name="AE" unicode="&#xc6;" horiz-adv-x="960" 
d="M890 752v-75h-325v-246h277v-75h-277v-281h341v-75h-435v210h-253l-119 -210h-96l438 752h449zM471 655l-211 -371h211v371z" />
    <glyph glyph-name="Ccedilla" unicode="&#xc7;" horiz-adv-x="630" 
d="M573 96v-78q-70 -24 -147 -26q54 -36 54 -91q0 -45 -34 -74t-98 -29q-28 0 -55 5v60h8q24 -7 47 -7q28 0 44.5 13t16.5 39q0 36 -42 86q-80 7 -140 40t-97 85.5t-55 117t-18 139.5q0 64 12.5 120t40 105t68 84t100 55t132.5 20q90 0 163 -26v-78h-8q-74 30 -151 30
q-64 0 -114 -24t-80 -66t-45 -96.5t-15 -119.5q0 -52 9.5 -98t29.5 -86t50 -68.5t72.5 -45t94.5 -16.5q75 0 149 30h8z" />
    <glyph glyph-name="Egrave" unicode="&#xc8;" horiz-adv-x="589" 
d="M98 752h421v-75h-325v-246h277v-75h-277v-281h341v-75h-437v752zM351 839h-84l-153 123h123z" />
    <glyph glyph-name="Eacute" unicode="&#xc9;" horiz-adv-x="589" 
d="M98 752h421v-75h-325v-246h277v-75h-277v-281h341v-75h-437v752zM348 839h-83l113 123h123z" />
    <glyph glyph-name="Ecircumflex" unicode="&#xca;" horiz-adv-x="589" 
d="M98 752h421v-75h-325v-246h277v-75h-277v-281h341v-75h-437v752zM260 962h95l118 -123h-89l-79 78l-77 -78h-86z" />
    <glyph glyph-name="Edieresis" unicode="&#xcb;" horiz-adv-x="589" 
d="M98 752h421v-75h-325v-246h277v-75h-277v-281h341v-75h-437v752zM168 931h91v-92h-91v92zM356 931h92v-92h-92v92z" />
    <glyph glyph-name="Igrave" unicode="&#xcc;" horiz-adv-x="293" 
d="M98 752h97v-752h-97v752zM190 839h-84l-153 123h123z" />
    <glyph glyph-name="Iacute" unicode="&#xcd;" horiz-adv-x="293" 
d="M98 752h97v-752h-97v752zM187 839h-83l113 123h123z" />
    <glyph glyph-name="Icircumflex" unicode="&#xce;" horiz-adv-x="293" 
d="M98 752h97v-752h-97v752zM99 962h95l118 -123h-89l-79 78l-77 -78h-86z" />
    <glyph glyph-name="Idieresis" unicode="&#xcf;" horiz-adv-x="293" 
d="M98 752h97v-752h-97v752zM7 931h91v-92h-91v92zM195 931h92v-92h-92v92z" />
    <glyph glyph-name="Eth" unicode="&#xd0;" horiz-adv-x="782" 
d="M126 752h191q75 0 114.5 -5t73.5 -15t64 -27q73 -41 114.5 -123t41.5 -205q0 -242 -162 -331q-30 -16 -63 -26t-73 -15t-110 -5h-191v356h-109v74h109v322zM223 678v-248h182v-74h-182v-282h100q49 0 79.5 3.5t56 11t46.5 20.5q117 67 117 267t-118 267q-22 12 -47.5 20
t-55 11.5t-78.5 3.5h-100z" />
    <glyph glyph-name="Ntilde" unicode="&#xd1;" horiz-adv-x="776" 
d="M98 752h97l396 -595v595h87v-752h-89l-404 602v-602h-87v752zM229 839v60q16 16 42.5 27.5t58.5 11.5q31 0 74.5 -17.5t64.5 -17.5q42 0 87 35h8v-60q-16 -16 -43 -27.5t-59 -11.5q-31 0 -73.5 17.5t-63.5 17.5q-44 0 -88 -35h-8z" />
    <glyph glyph-name="Ograve" unicode="&#xd2;" horiz-adv-x="788" 
d="M732 379q0 -185 -88.5 -288.5t-250.5 -103.5q-161 0 -248 101.5t-87 284.5q0 185 88.5 288.5t250.5 103.5q161 0 248 -101t87 -285zM221 140q61 -79 174 -79t173.5 79.5t60.5 235.5t-60.5 235.5t-173.5 79.5t-173.5 -79.5t-60.5 -235.5t60 -236zM437 839h-84l-153 123
h123z" />
    <glyph glyph-name="Oacute" unicode="&#xd3;" horiz-adv-x="788" 
d="M732 379q0 -185 -88.5 -288.5t-250.5 -103.5q-161 0 -248 101.5t-87 284.5q0 185 88.5 288.5t250.5 103.5q161 0 248 -101t87 -285zM221 140q61 -79 174 -79t173.5 79.5t60.5 235.5t-60.5 235.5t-173.5 79.5t-173.5 -79.5t-60.5 -235.5t60 -236zM434 839h-83l113 123h123
z" />
    <glyph glyph-name="Ocircumflex" unicode="&#xd4;" horiz-adv-x="788" 
d="M732 379q0 -185 -88.5 -288.5t-250.5 -103.5q-161 0 -248 101.5t-87 284.5q0 185 88.5 288.5t250.5 103.5q161 0 248 -101t87 -285zM221 140q61 -79 174 -79t173.5 79.5t60.5 235.5t-60.5 235.5t-173.5 79.5t-173.5 -79.5t-60.5 -235.5t60 -236zM346 962h95l118 -123h-89
l-79 78l-77 -78h-86z" />
    <glyph glyph-name="Otilde" unicode="&#xd5;" horiz-adv-x="788" 
d="M732 379q0 -185 -88.5 -288.5t-250.5 -103.5q-161 0 -248 101.5t-87 284.5q0 185 88.5 288.5t250.5 103.5q161 0 248 -101t87 -285zM221 140q61 -79 174 -79t173.5 79.5t60.5 235.5t-60.5 235.5t-173.5 79.5t-173.5 -79.5t-60.5 -235.5t60 -236zM235 839v60
q16 16 42.5 27.5t58.5 11.5q31 0 74.5 -17.5t64.5 -17.5q42 0 87 35h8v-60q-16 -16 -43 -27.5t-59 -11.5q-31 0 -73.5 17.5t-63.5 17.5q-44 0 -88 -35h-8z" />
    <glyph glyph-name="Odieresis" unicode="&#xd6;" horiz-adv-x="788" 
d="M732 379q0 -185 -88.5 -288.5t-250.5 -103.5q-161 0 -248 101.5t-87 284.5q0 185 88.5 288.5t250.5 103.5q161 0 248 -101t87 -285zM221 140q61 -79 174 -79t173.5 79.5t60.5 235.5t-60.5 235.5t-173.5 79.5t-173.5 -79.5t-60.5 -235.5t60 -236zM233 931h95v-92h-95v92z
M460 931h95v-92h-95v92z" />
    <glyph glyph-name="multiply" unicode="&#xd7;" horiz-adv-x="680" 
d="M572 108l-58 -56l-176 180l-176 -180l-55 54l180 176l-180 174l58 56l176 -180l176 180l55 -54l-180 -176z" />
    <glyph glyph-name="Oslash" unicode="&#xd8;" horiz-adv-x="788" 
d="M393 -13q-118 0 -197 55l-50 -70h-94l92 118q-87 100 -87 284q0 186 88.5 288.5t249.5 102.5q115 0 196 -56l50 71h95l-92 -119q87 -100 87 -284t-88.5 -287t-249.5 -103zM156 376q0 -136 44 -213l343 480q-57 51 -149 51q-116 0 -177 -80t-61 -238zM394 58
q115 0 176.5 80t61.5 238q0 132 -45 212l-343 -479q57 -51 150 -51z" />
    <glyph glyph-name="Ugrave" unicode="&#xd9;" horiz-adv-x="754" 
d="M98 752h97v-476q0 -40 5 -71t18 -59t33.5 -46t53.5 -28.5t77 -10.5t77 10.5t53.5 28.5t33.5 46t18 59t5 71v476h87v-459q0 -54 -4 -83.5t-9.5 -50.5t-17.5 -46t-29 -44q-72 -82 -221 -82q-146 0 -217 82q-21 24 -34.5 54t-18.5 62.5t-6 53t-1 54.5v459zM417 839h-84
l-153 123h123z" />
    <glyph glyph-name="Uacute" unicode="&#xda;" horiz-adv-x="754" 
d="M98 752h97v-476q0 -40 5 -71t18 -59t33.5 -46t53.5 -28.5t77 -10.5t77 10.5t53.5 28.5t33.5 46t18 59t5 71v476h87v-459q0 -54 -4 -83.5t-9.5 -50.5t-17.5 -46t-29 -44q-72 -82 -221 -82q-146 0 -217 82q-21 24 -34.5 54t-18.5 62.5t-6 53t-1 54.5v459zM414 839h-83
l113 123h123z" />
    <glyph glyph-name="Ucircumflex" unicode="&#xdb;" horiz-adv-x="754" 
d="M98 752h97v-476q0 -40 5 -71t18 -59t33.5 -46t53.5 -28.5t77 -10.5t77 10.5t53.5 28.5t33.5 46t18 59t5 71v476h87v-459q0 -54 -4 -83.5t-9.5 -50.5t-17.5 -46t-29 -44q-72 -82 -221 -82q-146 0 -217 82q-21 24 -34.5 54t-18.5 62.5t-6 53t-1 54.5v459zM326 962h95
l118 -123h-89l-79 78l-77 -78h-86z" />
    <glyph glyph-name="Udieresis" unicode="&#xdc;" horiz-adv-x="754" 
d="M98 752h97v-476q0 -40 5 -71t18 -59t33.5 -46t53.5 -28.5t77 -10.5t77 10.5t53.5 28.5t33.5 46t18 59t5 71v476h87v-459q0 -54 -4 -83.5t-9.5 -50.5t-17.5 -46t-29 -44q-72 -82 -221 -82q-146 0 -217 82q-21 24 -34.5 54t-18.5 62.5t-6 53t-1 54.5v459zM213 931h95v-92
h-95v92zM440 931h95v-92h-95v92z" />
    <glyph glyph-name="Yacute" unicode="&#xdd;" horiz-adv-x="634" 
d="M13 752h113l201 -367l202 367h92l-256 -453v-299h-97v298zM365 839h-83l113 123h123z" />
    <glyph glyph-name="Thorn" unicode="&#xde;" horiz-adv-x="625" 
d="M98 752h97v-140h80q44 0 79 -2t69 -11t65 -28q48 -30 71 -80.5t23 -111.5q0 -136 -103 -199q-43 -25 -89 -32.5t-115 -7.5h-80v-140h-97v752zM195 538v-324h95q28 0 48.5 1.5t43 7.5t41.5 19q29 20 43 56t14 78q0 92 -57 133q-18 14 -40 20t-43.5 7.5t-49.5 1.5h-95z" />
    <glyph glyph-name="germandbls" unicode="&#xdf;" horiz-adv-x="615" 
d="M184 0h-95v530q0 38 1.5 63t7.5 50t18 48q50 90 188 90q98 0 150.5 -43.5t52.5 -115.5q0 -36 -13.5 -63.5t-32.5 -46t-38 -33.5t-33 -32.5t-14 -36.5q0 -18 11 -33t28 -27t38 -25t42 -29t38.5 -35t28.5 -47t11 -62q0 -78 -54 -119t-140 -41q-61 0 -111 18v73h8
q56 -22 106 -22q46 0 70.5 21t24.5 58q0 24 -11 43t-28 33.5t-38 28t-42 28.5t-38.5 32t-28 41t-10.5 53q0 32 13 56t32 41l39 32q20 16 33 36.5t13 47.5q0 42 -29 69.5t-79 27.5q-76 0 -104 -62q-7 -15 -10.5 -34t-4 -34t-0.5 -47v-532z" />
    <glyph glyph-name="agrave" unicode="&#xe0;" horiz-adv-x="554" 
d="M94 450v78q82 23 164 23q135 0 182 -67q15 -21 22.5 -52t8.5 -53.5t1 -64.5v-314h-71l-21 93q-10 -45 -49.5 -75t-105.5 -30q-81 0 -129.5 43t-48.5 116q0 94 82 136q24 12 57.5 20t77 10.5t113.5 2.5q0 32 -0.5 47.5t-4.5 36t-13 33.5q-28 45 -112 45q-70 0 -145 -28h-8
zM147 149q0 -40 25.5 -63.5t71.5 -23.5q37 0 67 16t46 46q20 39 20 106v22q-79 0 -118 -4t-66 -19q-46 -26 -46 -80zM313 631h-73l-132 149h109z" />
    <glyph glyph-name="aacute" unicode="&#xe1;" horiz-adv-x="554" 
d="M94 450v78q82 23 164 23q135 0 182 -67q15 -21 22.5 -52t8.5 -53.5t1 -64.5v-314h-71l-21 93q-10 -45 -49.5 -75t-105.5 -30q-81 0 -129.5 43t-48.5 116q0 94 82 136q24 12 57.5 20t77 10.5t113.5 2.5q0 32 -0.5 47.5t-4.5 36t-13 33.5q-28 45 -112 45q-70 0 -145 -28h-8
zM147 149q0 -40 25.5 -63.5t71.5 -23.5q37 0 67 16t46 46q20 39 20 106v22q-79 0 -118 -4t-66 -19q-46 -26 -46 -80zM308 631h-73l96 149h109z" />
    <glyph glyph-name="acircumflex" unicode="&#xe2;" horiz-adv-x="554" 
d="M94 450v78q82 23 164 23q135 0 182 -67q15 -21 22.5 -52t8.5 -53.5t1 -64.5v-314h-71l-21 93q-10 -45 -49.5 -75t-105.5 -30q-81 0 -129.5 43t-48.5 116q0 94 82 136q24 12 57.5 20t77 10.5t113.5 2.5q0 32 -0.5 47.5t-4.5 36t-13 33.5q-28 45 -112 45q-70 0 -145 -28h-8
zM147 149q0 -40 25.5 -63.5t71.5 -23.5q37 0 67 16t46 46q20 39 20 106v22q-79 0 -118 -4t-66 -19q-46 -26 -46 -80zM237 780h74l118 -149h-80l-78 93l-77 -93h-75z" />
    <glyph glyph-name="atilde" unicode="&#xe3;" horiz-adv-x="554" 
d="M94 450v78q82 23 164 23q135 0 182 -67q15 -21 22.5 -52t8.5 -53.5t1 -64.5v-314h-71l-21 93q-10 -45 -49.5 -75t-105.5 -30q-81 0 -129.5 43t-48.5 116q0 94 82 136q24 12 57.5 20t77 10.5t113.5 2.5q0 32 -0.5 47.5t-4.5 36t-13 33.5q-28 45 -112 45q-70 0 -145 -28h-8
zM147 149q0 -40 25.5 -63.5t71.5 -23.5q37 0 67 16t46 46q20 39 20 106v22q-79 0 -118 -4t-66 -19q-46 -26 -46 -80zM127 640v59q40 40 91 40q28 0 68 -18t59 -18q38 0 76 36h8v-59q-40 -40 -90 -40q-28 0 -68.5 18t-58.5 18q-39 0 -77 -36h-8z" />
    <glyph glyph-name="adieresis" unicode="&#xe4;" horiz-adv-x="554" 
d="M94 450v78q82 23 164 23q135 0 182 -67q15 -21 22.5 -52t8.5 -53.5t1 -64.5v-314h-71l-21 93q-10 -45 -49.5 -75t-105.5 -30q-81 0 -129.5 43t-48.5 116q0 94 82 136q24 12 57.5 20t77 10.5t113.5 2.5q0 32 -0.5 47.5t-4.5 36t-13 33.5q-28 45 -112 45q-70 0 -145 -28h-8
zM147 149q0 -40 25.5 -63.5t71.5 -23.5q37 0 67 16t46 46q20 39 20 106v22q-79 0 -118 -4t-66 -19q-46 -26 -46 -80zM131 735h90v-95h-90v95zM327 735h90v-95h-90v95z" />
    <glyph glyph-name="aring" unicode="&#xe5;" horiz-adv-x="554" 
d="M94 450v78q82 23 164 23q135 0 182 -67q15 -21 22.5 -52t8.5 -53.5t1 -64.5v-314h-71l-21 93q-10 -45 -49.5 -75t-105.5 -30q-81 0 -129.5 43t-48.5 116q0 94 82 136q24 12 57.5 20t77 10.5t113.5 2.5q0 32 -0.5 47.5t-4.5 36t-13 33.5q-28 45 -112 45q-70 0 -145 -28h-8
zM147 149q0 -40 25.5 -63.5t71.5 -23.5q37 0 67 16t46 46q20 39 20 106v22q-79 0 -118 -4t-66 -19q-46 -26 -46 -80zM190 632q-31 28 -31 72t31.5 71.5t83.5 27.5t83.5 -27.5t31.5 -71.5t-31.5 -71.5t-83.5 -27.5t-84 27zM274 651q25 0 39.5 14.5t14.5 38.5t-14.5 38.5
t-39.5 14.5t-39.5 -14.5t-14.5 -38.5t14 -38.5t40 -14.5z" />
    <glyph glyph-name="ae" unicode="&#xe6;" horiz-adv-x="883" 
d="M410 119q-38 -127 -185 -127q-82 0 -130 40t-48 114q0 92 73 133q31 17 69.5 25t79.5 10t108 2q0 32 -0.5 47.5t-4.5 35.5t-13 34q-28 45 -112 45q-71 0 -145 -28h-8v78q78 23 164 23q147 0 183 -83q58 85 172 85q60 0 106.5 -24.5t71.5 -68.5q12 -22 20 -47t10.5 -57
t3.5 -52t1 -56h-353q0 -88 43 -136t127 -48q70 0 145 28h8v-76q-70 -24 -158 -24q-91 0 -147 31.5t-81 95.5zM473 316h254q0 167 -119 167q-64 0 -97.5 -43.5t-37.5 -123.5zM147 152q0 -40 26 -63t73 -23q36 0 65.5 14t45.5 45q20 39 20 108v19q-76 0 -117.5 -4t-66.5 -18
q-46 -24 -46 -78z" />
    <glyph glyph-name="ccedilla" unicode="&#xe7;" horiz-adv-x="486" 
d="M436 89v-79q-48 -16 -106 -18q54 -36 54 -91q0 -45 -34 -74t-98 -29q-28 0 -55 5v60h8q24 -7 47 -7q28 0 44.5 13t16.5 39q0 38 -43 87q-104 12 -159.5 84.5t-55.5 191.5q0 132 68 206t193 74q66 0 120 -18v-79h-8q-54 23 -108 23q-78 0 -120.5 -53.5t-42.5 -149.5
t42.5 -152t120.5 -56q55 0 108 23h8z" />
    <glyph glyph-name="egrave" unicode="&#xe8;" horiz-adv-x="565" 
d="M478 93v-77q-73 -24 -158 -24q-130 0 -196 67q-69 70 -69 211q0 134 63 210t175 76q126 0 180 -94q12 -22 21 -53t11.5 -67.5t2.5 -92.5h-353q0 -90 43 -137.5t127 -47.5q70 0 145 29h8zM155 317h254q0 169 -119 169q-122 0 -135 -169zM329 631h-73l-132 149h109z" />
    <glyph glyph-name="eacute" unicode="&#xe9;" horiz-adv-x="565" 
d="M478 93v-77q-73 -24 -158 -24q-130 0 -196 67q-69 70 -69 211q0 134 63 210t175 76q126 0 180 -94q12 -22 21 -53t11.5 -67.5t2.5 -92.5h-353q0 -90 43 -137.5t127 -47.5q70 0 145 29h8zM155 317h254q0 169 -119 169q-122 0 -135 -169zM324 631h-73l96 149h109z" />
    <glyph glyph-name="ecircumflex" unicode="&#xea;" horiz-adv-x="565" 
d="M478 93v-77q-73 -24 -158 -24q-130 0 -196 67q-69 70 -69 211q0 134 63 210t175 76q126 0 180 -94q12 -22 21 -53t11.5 -67.5t2.5 -92.5h-353q0 -90 43 -137.5t127 -47.5q70 0 145 29h8zM155 317h254q0 169 -119 169q-122 0 -135 -169zM253 780h74l118 -149h-80l-78 93
l-77 -93h-75z" />
    <glyph glyph-name="edieresis" unicode="&#xeb;" horiz-adv-x="565" 
d="M478 93v-77q-73 -24 -158 -24q-130 0 -196 67q-69 70 -69 211q0 134 63 210t175 76q126 0 180 -94q12 -22 21 -53t11.5 -67.5t2.5 -92.5h-353q0 -90 43 -137.5t127 -47.5q70 0 145 29h8zM155 317h254q0 169 -119 169q-122 0 -135 -169zM147 735h90v-95h-90v95zM343 735
h90v-95h-90v95z" />
    <glyph glyph-name="igrave" unicode="&#xec;" horiz-adv-x="273" 
d="M89 543h95v-543h-95v543zM176 631h-73l-132 149h109z" />
    <glyph glyph-name="iacute" unicode="&#xed;" horiz-adv-x="273" 
d="M89 543h95v-543h-95v543zM171 631h-73l96 149h109z" />
    <glyph glyph-name="icircumflex" unicode="&#xee;" horiz-adv-x="273" 
d="M89 543h95v-543h-95v543zM100 780h74l118 -149h-80l-78 93l-77 -93h-75z" />
    <glyph glyph-name="idieresis" unicode="&#xef;" horiz-adv-x="273" 
d="M89 543h95v-543h-95v543zM4 735h87v-95h-87v95zM183 735h87v-95h-87v95z" />
    <glyph glyph-name="eth" unicode="&#xf0;" horiz-adv-x="603" 
d="M506 690l-98 -50q134 -158 134 -356q0 -151 -77 -230q-66 -67 -171 -67q-104 0 -171.5 67t-67.5 172q0 104 66 171.5t165 67.5q114 0 156 -96q-18 116 -113 231l-152 -78v58l116 58q-82 83 -177 134v8h125q71 -42 130 -101l135 68v-57zM404 349q-40 47 -104 47t-104 -47
t-40 -122t40 -122t104 -47t104 47t40 122t-40 122z" />
    <glyph glyph-name="ntilde" unicode="&#xf1;" horiz-adv-x="611" 
d="M89 543h73l20 -93q25 105 159 105q108 0 156 -70q15 -22 22 -49t8.5 -51.5t1.5 -64.5v-320h-96v321q0 26 -1 43t-5.5 34t-14.5 32q-30 46 -102 46q-32 0 -56 -10t-37.5 -25.5t-20.5 -35t-9 -35.5t-2 -34v-336h-96v543zM159 640v59q40 40 91 40q28 0 68 -18t59 -18
q38 0 76 36h8v-59q-40 -40 -90 -40q-28 0 -68.5 18t-58.5 18q-39 0 -77 -36h-8z" />
    <glyph glyph-name="ograve" unicode="&#xf2;" horiz-adv-x="613" 
d="M307 556q119 0 185 -73.5t66 -210t-66 -211t-186 -74.5q-119 0 -185 73.5t-66 209.5t65.5 211t186.5 75zM307 58q74 0 111.5 55t37.5 158q0 214 -151 214q-73 0 -110.5 -54.5t-37.5 -158.5q0 -214 150 -214zM345 631h-73l-132 149h109z" />
    <glyph glyph-name="oacute" unicode="&#xf3;" horiz-adv-x="613" 
d="M307 556q119 0 185 -73.5t66 -210t-66 -211t-186 -74.5q-119 0 -185 73.5t-66 209.5t65.5 211t186.5 75zM307 58q74 0 111.5 55t37.5 158q0 214 -151 214q-73 0 -110.5 -54.5t-37.5 -158.5q0 -214 150 -214zM340 631h-73l96 149h109z" />
    <glyph glyph-name="ocircumflex" unicode="&#xf4;" horiz-adv-x="613" 
d="M307 556q119 0 185 -73.5t66 -210t-66 -211t-186 -74.5q-119 0 -185 73.5t-66 209.5t65.5 211t186.5 75zM307 58q74 0 111.5 55t37.5 158q0 214 -151 214q-73 0 -110.5 -54.5t-37.5 -158.5q0 -214 150 -214zM269 780h74l118 -149h-80l-78 93l-77 -93h-75z" />
    <glyph glyph-name="otilde" unicode="&#xf5;" horiz-adv-x="613" 
d="M307 556q119 0 185 -73.5t66 -210t-66 -211t-186 -74.5q-119 0 -185 73.5t-66 209.5t65.5 211t186.5 75zM307 58q74 0 111.5 55t37.5 158q0 214 -151 214q-73 0 -110.5 -54.5t-37.5 -158.5q0 -214 150 -214zM159 640v59q40 40 91 40q28 0 68 -18t59 -18q38 0 76 36h8v-59
q-40 -40 -90 -40q-28 0 -68.5 18t-58.5 18q-39 0 -77 -36h-8z" />
    <glyph glyph-name="odieresis" unicode="&#xf6;" horiz-adv-x="613" 
d="M307 556q119 0 185 -73.5t66 -210t-66 -211t-186 -74.5q-119 0 -185 73.5t-66 209.5t65.5 211t186.5 75zM307 58q74 0 111.5 55t37.5 158q0 214 -151 214q-73 0 -110.5 -54.5t-37.5 -158.5q0 -214 150 -214zM163 735h90v-95h-90v95zM359 735h90v-95h-90v95z" />
    <glyph glyph-name="oslash" unicode="&#xf8;" horiz-adv-x="612" 
d="M557 271q0 -136 -66.5 -210t-184.5 -74q-66 0 -120 25l-39 -67h-75l65 100q-82 74 -82 226q0 136 67 210.5t184 74.5q66 0 118 -26l40 68h76l-66 -101q83 -75 83 -226zM305 56q154 0 154 216q0 98 -32 151l-203 -347q32 -20 81 -20zM153 270q0 -97 30 -151l204 347
q-33 21 -80 21q-154 0 -154 -217z" />
    <glyph glyph-name="ugrave" unicode="&#xf9;" horiz-adv-x="610" 
d="M521 0h-73l-20 93q-11 -49 -50.5 -77t-106.5 -28q-103 0 -150 68q-20 30 -26 65t-6 98v324h96v-321q0 -42 3.5 -66t17.5 -43q32 -46 99 -46q120 0 120 140v336h96v-543zM344 631h-73l-132 149h109z" />
    <glyph glyph-name="uacute" unicode="&#xfa;" horiz-adv-x="610" 
d="M521 0h-73l-20 93q-11 -49 -50.5 -77t-106.5 -28q-103 0 -150 68q-20 30 -26 65t-6 98v324h96v-321q0 -42 3.5 -66t17.5 -43q32 -46 99 -46q120 0 120 140v336h96v-543zM339 631h-73l96 149h109z" />
    <glyph glyph-name="ucircumflex" unicode="&#xfb;" horiz-adv-x="610" 
d="M521 0h-73l-20 93q-11 -49 -50.5 -77t-106.5 -28q-103 0 -150 68q-20 30 -26 65t-6 98v324h96v-321q0 -42 3.5 -66t17.5 -43q32 -46 99 -46q120 0 120 140v336h96v-543zM268 780h74l118 -149h-80l-78 93l-77 -93h-75z" />
    <glyph glyph-name="udieresis" unicode="&#xfc;" horiz-adv-x="610" 
d="M521 0h-73l-20 93q-11 -49 -50.5 -77t-106.5 -28q-103 0 -150 68q-20 30 -26 65t-6 98v324h96v-321q0 -42 3.5 -66t17.5 -43q32 -46 99 -46q120 0 120 140v336h96v-543zM162 735h90v-95h-90v95zM358 735h90v-95h-90v95z" />
    <glyph glyph-name="yacute" unicode="&#xfd;" horiz-adv-x="591" 
d="M548 543l-291 -743h-96l89 213l-208 530h110l150 -419l156 419h90zM334 631h-73l96 149h109z" />
    <glyph glyph-name="thorn" unicode="&#xfe;" horiz-adv-x="633" 
d="M184 -200h-95v980h95v-333q14 50 58 79t110 29q106 0 166 -75.5t60 -205.5q0 -132 -62 -209t-171 -77q-124 0 -161 98v-286zM328 62q40 0 69 16t46 44.5t25.5 65.5t8.5 83t-8.5 83t-25.5 66t-46 45t-69 16q-76 0 -111.5 -56t-35.5 -154t35.5 -153.5t111.5 -55.5z" />
    <glyph glyph-name="ydieresis" unicode="&#xff;" horiz-adv-x="591" 
d="M548 543l-291 -743h-96l89 213l-208 530h110l150 -419l156 419h90zM157 735h90v-95h-90v95zM353 735h90v-95h-90v95z" />
    <glyph glyph-name="OE" unicode="&#x152;" horiz-adv-x="1071" 
d="M592 677q44 -24 78 -85.5t42 -160.5h241v-75h-240q-4 -112 -39.5 -184t-87.5 -97h431v-75h-611q-30 0 -57.5 1.5t-54 6t-57.5 18t-59 34.5q-62 48 -91.5 130t-29.5 185q0 220 127 316q28 22 59.5 35.5t59.5 18t53.5 6t57.5 1.5h587v-75h-409zM219 146q59 -76 168 -76
t168 76t59 230t-59 229.5t-168 75.5t-168 -75.5t-59 -229.5t59 -230z" />
    <glyph glyph-name="oe" unicode="&#x153;" horiz-adv-x="945" 
d="M486 112q-20 -57 -70.5 -91t-124.5 -34q-108 0 -172 74.5t-64 207.5q0 134 64.5 210.5t175.5 76.5q70 0 121.5 -32t72.5 -92q17 53 65 88.5t122 35.5q123 0 177 -94q16 -29 23 -59.5t9.5 -61.5t2.5 -92h-353q0 -98 48 -142.5t123 -42.5q70 0 143 29h9v-77
q-70 -24 -158 -24q-80 0 -135 28t-79 92zM535 317h254q1 169 -118 169q-64 0 -97.5 -45.5t-38.5 -123.5zM299 58q70 0 106 54.5t36 158.5t-36 159t-107 55q-70 0 -106 -54.5t-36 -158.5t36 -159t107 -55z" />
    <glyph glyph-name="Ydieresis" unicode="&#x178;" horiz-adv-x="634" 
d="M13 752h113l201 -367l202 367h92l-256 -453v-299h-97v298zM164 931h95v-92h-95v92zM391 931h95v-92h-95v92z" />
    <glyph glyph-name="tilde" unicode="&#x2dc;" 
d="M153 640v59q40 40 91 40q28 0 68 -18t59 -18q38 0 76 36h8v-59q-40 -40 -90 -40q-28 0 -68.5 18t-58.5 18q-39 0 -77 -36h-8z" />
    <glyph glyph-name="endash" unicode="&#x2013;" horiz-adv-x="672" 
d="M594 276h-516v72h516v-72z" />
    <glyph glyph-name="emdash" unicode="&#x2014;" horiz-adv-x="1052" 
d="M974 276h-896v72h896v-72z" />
    <glyph glyph-name="quoteleft" unicode="&#x2018;" horiz-adv-x="284" 
d="M133 780h67l-40 -257h-95z" />
    <glyph glyph-name="quoteright" unicode="&#x2019;" horiz-adv-x="285" 
d="M142 523h-67l40 257h95z" />
    <glyph glyph-name="quotedblleft" unicode="&#x201c;" horiz-adv-x="438" 
d="M290 780h64l-40 -257h-91zM133 780h64l-40 -257h-91z" />
    <glyph glyph-name="quotedblright" unicode="&#x201d;" horiz-adv-x="438" 
d="M139 523h-64l40 257h91zM296 523h-64l40 257h91z" />
    <glyph glyph-name="quotedblbase" unicode="&#x201e;" horiz-adv-x="409" 
d="M121 -123h-64l40 257h91zM278 -123h-64l40 257h91z" />
    <glyph glyph-name="bullet" unicode="&#x2022;" horiz-adv-x="267" 
d="M47 387h147v-147h-147v147z" />
    <glyph glyph-name="ellipsis" unicode="&#x2026;" horiz-adv-x="877" 
d="M115 98h97v-98h-97v98zM390 98h97v-98h-97v98zM665 98h97v-98h-97v98z" />
    <glyph glyph-name="guilsinglleft" unicode="&#x2039;" horiz-adv-x="349" 
d="M60 311l134 209h95l-140 -207l140 -210h-95z" />
    <glyph glyph-name="guilsinglright" unicode="&#x203a;" horiz-adv-x="349" 
d="M289 311l-134 -208h-95l140 206l-140 211h95z" />
    <glyph glyph-name="Euro" unicode="&#x20ac;" horiz-adv-x="664" 
d="M483 227h-245q23 -75 78 -118.5t136 -43.5q70 0 137 28h7v-77q-65 -23 -147 -23q-127 0 -206.5 63t-106.5 171h-92v71h81q-2 15 -2 45t2 47h-81v71h92q27 108 106.5 171t206.5 63q80 0 147 -23v-77h-7q-69 28 -138 28q-84 0 -138.5 -44t-76.5 -118h303l-17 -71h-299
q-2 -15 -2 -43.5t2 -48.5h276z" />
    <glyph glyph-name="trademark" unicode="&#x2122;" horiz-adv-x="787" 
d="M23 752h261v-58h-95v-262h-71v262h-95v58zM351 752h97l96 -224l96 224h96v-320h-69v248l-97 -227h-60l-97 227v-248h-62v320z" />
    <glyph glyph-name="dotlessi" horiz-adv-x="273" 
d="M89 543h95v-543h-95v543z" />
    <glyph glyph-name="fraction" horiz-adv-x="210" 
d="M489 772l-360 -449l-319 -415h-89v8l360 449l319 415h89v-8z" />
    <glyph glyph-name="dieresis.narrow" 
d="M167 735h87v-95h-87v95zM346 735h87v-95h-87v95z" />
    <glyph glyph-name="circumflex" 
d="M263 780h74l118 -149h-80l-78 93l-77 -93h-75z" />
    <glyph glyph-name="ring" 
d="M216 632q-31 28 -31 72t31.5 71.5t83.5 27.5t83.5 -27.5t31.5 -71.5t-31.5 -71.5t-83.5 -27.5t-84 27zM300 651q25 0 39.5 14.5t14.5 38.5t-14.5 38.5t-39.5 14.5t-39.5 -14.5t-14.5 -38.5t14 -38.5t40 -14.5z" />
    <glyph glyph-name="dieresis.case" 
d="M139 931h95v-92h-95v92zM366 931h95v-92h-95v92z" />
    <glyph glyph-name="dieresis.narrow.case" 
d="M160 931h91v-92h-91v92zM348 931h92v-92h-92v92z" />
    <glyph glyph-name="grave.case" 
d="M343 839h-84l-153 123h123z" />
    <glyph glyph-name="acute.case" 
d="M340 839h-83l113 123h123z" />
    <glyph glyph-name="circumflex.case" 
d="M252 962h95l118 -123h-89l-79 78l-77 -78h-86z" />
    <glyph glyph-name="tilde.case" 
d="M141 839v60q16 16 42.5 27.5t58.5 11.5q31 0 74.5 -17.5t64.5 -17.5q42 0 87 35h8v-60q-16 -16 -43 -27.5t-59 -11.5q-31 0 -73.5 17.5t-63.5 17.5q-44 0 -88 -35h-8z" />
    <glyph glyph-name="one.numr" horiz-adv-x="331" 
d="M247 334h-82v376l-121 -43h-8v62l154 51h57v-446z" />
    <glyph glyph-name="two.dnom" horiz-adv-x="401" 
d="M345 -30v-62h-303v54q12 12 39 37l38 35q11 10 32 31t30 31t23 27t20 27t13.5 24.5t10 27t2.5 24.5q0 34 -22 53t-66 19q-45 0 -96 -17h-8v63q55 16 115 16q81 0 121 -34t40 -92q0 -24 -8 -48.5t-19 -42.5t-34 -43.5t-38 -40t-48 -44t-49 -45.5h207z" />
    </font>
</defs>
</svg>
