<svg id="surge-logo-svg" xmlns="http://www.w3.org/2000/svg" viewBox="0 0 30 20.23"><defs><style>.cls-1{fill:#fff;}</style></defs><title>favicon工作區域 1</title><path class="cls-1" d="M29.69 1.7h-.1L.84 0a.75.75 0 0 0-.73.34.77.77 0 0 0 .1.94l15.53 18.8a.4.4 0 0 0 .65 0l5.18-6.79a.37.37 0 0 1 .36-.15.39.39 0 0 1 .27.2L24.65 18a.37.37 0 0 0 .33.2h.08a.37.37 0 0 0 .29-.34L26 7.76a1.15 1.15 0 0 1 .25-.68l3.65-4.75a.36.36 0 0 0 .1-.26.38.38 0 0 0-.31-.37m-4.44 6.51l-.55 8.27-2.16-4.14a.62.62 0 0 0-.25-.3l-.14-.04L2.41 1.49a.18.18 0 0 1 .09-.34h.06L25 7.79a.39.39 0 0 1 .19.14.39.39 0 0 1 .07.27"/></svg>
