<?xml version="1.0" encoding="utf-8"?>
<!-- Generator: Adobe Illustrator 21.1.0, SVG Export Plug-In . SVG Version: 6.00 Build 0)  -->
<svg version="1.1" id="圖層_1" xmlns="http://www.w3.org/2000/svg" xmlns:xlink="http://www.w3.org/1999/xlink" x="0px" y="0px"
	 viewBox="0 0 500 100" style="enable-background:new 0 0 500 100;" xml:space="preserve">
<style type="text/css">
	.st0{fill:none;stroke:#000000;stroke-miterlimit:10;}
</style>
<g>
	<path class="st0" d="M59.2,58.8c-2.7-0.2-2.7-1.9-2.7-3.9V50H48v8.8c-5.3,0-6.2-0.2-6.2-3.9V36.6c5.3,0,6.2,0.2,6.2,3.9V45h8.5
		v-8.4c5.3,0,6.2,0.2,6.2,3.9v18.3C60.5,58.8,59.8,58.8,59.2,58.8z"/>
	<path class="st0" d="M84.1,51.2c-0.9,0.4-3,0.3-3.9,0.3h-8c0,1.9,1.1,2.6,3.6,2.6h3.9c3.6,0,4.1,0.6,4.1,4.8h-7.8
		c-7.8,0-10-4.4-10-8.9c0-4.5,2.2-9,10-9c6,0,9.1,3.4,9.1,7.8C85.1,50.4,84.8,50.8,84.1,51.2z M75.7,45.6c-3.5,0-3.6,0-3.6,2.7H79
		C79,46.5,78.1,45.6,75.7,45.6z"/>
	<path class="st0" d="M88,54.8V34.4c1.3,0,4.1-0.2,5.1,0.6c0.6,0.5,0.9,1.4,0.9,3.3v20.6C88.8,58.8,88,58.5,88,54.8z"/>
	<path class="st0" d="M97.5,54.8V34.4c1.3,0,4.1-0.2,5.1,0.6c0.6,0.5,0.9,1.4,0.9,3.3v20.6C98.3,58.8,97.5,58.5,97.5,54.8z"/>
	<path class="st0" d="M116.2,59c-7.9,0-9.9-4.5-9.9-9.1c0-4.5,2.1-9,9.9-9c7.8,0,10,4.5,10,9C126.2,54.5,123.9,59,116.2,59z
		 M116.2,45.8c-3.9,0-3.9,0-3.9,4.2c0,2.8,0.7,4.2,3.7,4.2c3.9,0,3.9,0,3.9-4.2C120,47.3,119.4,45.8,116.2,45.8z"/>
	<path class="st0" d="M147.6,58.8H139c0-4.4,0.3-5.1,4.2-5.1h4.3c4.1,0,4.1-0.1,4.1-1.8c0-1.5-2.4-1.8-3.6-2
		c-4.1-0.8-9.8-1.4-9.8-6.2c0-4.5,3.4-7.1,10-7.1h8.7c0,4.5-0.4,5.1-4.1,5.1h-4.7c-3.7,0-3.7,0-3.7,1.9c0,0.5,0.5,1,1.4,1.3
		c4.5,1.1,12,1.3,12,6.9C157.7,55.4,155.1,58.8,147.6,58.8z"/>
	<path class="st0" d="M175,55.6c-1.1,2.4-1.3,3.2-4.5,3.2h-3.2l-9.5-22.2c1.7,0,4.7-0.2,6,0.5c0.9,0.5,1.4,1.5,2,3.1l4.7,12.3
		l5.1-13.4c0.6-1.7,1.5-2.4,4.1-2.4c0.8,0,1.2-0.1,3.5-0.1L175,55.6z"/>
	<path class="st0" d="M200.6,56c-0.9,1.7-3.5,3.1-6.2,3.1c-8.7,0-11.2-5.6-11.2-11.3c0-5.8,2.2-11.1,11.3-11.1h9.7
		c0,3.5,0.5,5-4.2,5h-5.5c-5.1,0-5.1,0-5.1,6c0,4,1.1,6.3,5.1,6.3c5.1,0,5.1-0.2,5.1-4.1h-2.9c-3.2,0-3.5-0.4-3.5-4.6h12.5v13.6
		C201.6,58.8,200.6,58.7,200.6,56z"/>
	<path class="st0" d="M247.6,55.3c-1,3-1.3,3.5-4.5,3.5h-3l-4.5-14.6l-3.3,11.1c-0.9,3.1-1.3,3.5-5,3.5h-2.4l-7.5-22.2
		c1.4,0,4.6-0.2,5.8,0.5c1.1,0.6,1.5,1.9,1.8,3l3.1,11.3l4.5-14.8c1.4,0,4.2-0.1,5.5,0.5c1.2,0.5,1.6,1.8,1.9,3l3.3,11.3l3.2-11.3
		c0.9-3.4,1.5-3.5,7.4-3.5L247.6,55.3z"/>
	<path class="st0" d="M263.5,59c-7.9,0-9.9-4.5-9.9-9.1c0-4.5,2.1-9,9.9-9c7.8,0,10,4.5,10,9C273.5,54.5,271.2,59,263.5,59z
		 M263.5,45.8c-3.9,0-3.9,0-3.9,4.2c0,2.8,0.7,4.2,3.7,4.2c3.9,0,3.9,0,3.9-4.2C267.3,47.3,266.7,45.8,263.5,45.8z"/>
	<path class="st0" d="M287.6,43.8c-0.2,2.2-1.8,2.1-3.5,2.1c-1.9,0-1.9,0-1.9,3.2v9.7c-5.2,0-6-0.2-6-3.7v-14c4.2,0,5,0.4,5,2.4
		c1-1.7,3.2-2.6,6.5-2.4C287.7,42.9,287.7,43.4,287.6,43.8z"/>
	<path class="st0" d="M289.5,54.8V34.4c1.3,0,4.1-0.2,5.1,0.6c0.6,0.5,0.9,1.4,0.9,3.3v20.6C290.3,58.8,289.5,58.5,289.5,54.8z"/>
	<path class="st0" d="M312.8,56.2c-1,2-3.3,2.8-5.8,2.8c-6.9,0-8.7-4.5-8.7-9.1c0-4.7,2-9,8.2-9c1.7,0,4.1,0.4,5.3,2.6v-9.1
		c1.3,0,4.1-0.2,5.1,0.6c0.6,0.5,0.9,1.4,0.9,3.3v20.5C314.1,58.8,312.8,59,312.8,56.2z M308.1,45.9c-3.7,0-3.7-0.1-3.7,4
		c0,3,0.6,4.1,3.6,4.1c3.7,0,3.8,0.2,3.8-4.1C311.8,47,311.3,45.9,308.1,45.9z"/>
</g>
</svg>
